M48
METRIC,TZ
T1C0.500
T2C0.650
T3C0.900
%
G90
G05
T1
X24200Y-24250
X24200Y-25250
X24200Y-26250
X24200Y-27250
X24200Y-28250
X24200Y-35500
X24200Y-36500
X24200Y-37500
X24200Y-38500
X24200Y-39500
X24200Y-46750
X24200Y-47750
X24200Y-48750
X24200Y-49750
X24200Y-50750
X24200Y-71250
X24200Y-72250
X24200Y-73250
X24200Y-74250
X24200Y-75250
X24200Y-82500
X24200Y-83500
X24200Y-84500
X24200Y-85500
X24200Y-86500
X24200Y-93750
X24200Y-94750
X24200Y-95750
X24200Y-96750
X24200Y-97750
X35333Y-59800
X35333Y-62200
X36333Y-59800
X36333Y-62200
X37333Y-59800
X37333Y-62200
X38333Y-59800
X38333Y-62200
X39333Y-59800
X39333Y-62200
X48667Y-59800
X48667Y-62200
X49667Y-59800
X49667Y-62200
X50667Y-59800
X50667Y-62200
X51667Y-59800
X51667Y-62200
X52667Y-59800
X52667Y-62200
X63800Y-24250
X63800Y-25250
X63800Y-26250
X63800Y-27250
X63800Y-28250
X63800Y-35500
X63800Y-36500
X63800Y-37500
X63800Y-38500
X63800Y-39500
X63800Y-46750
X63800Y-47750
X63800Y-48750
X63800Y-49750
X63800Y-50750
X63800Y-71250
X63800Y-72250
X63800Y-73250
X63800Y-74250
X63800Y-75250
X63800Y-82500
X63800Y-83500
X63800Y-84500
X63800Y-85500
X63800Y-86500
X63800Y-93750
X63800Y-94750
X63800Y-95750
X63800Y-96750
X63800Y-97750
X66200Y-24250
X66200Y-25250
X66200Y-26250
X66200Y-27250
X66200Y-28250
X66200Y-35500
X66200Y-36500
X66200Y-37500
X66200Y-38500
X66200Y-39500
X66200Y-46750
X66200Y-47750
X66200Y-48750
X66200Y-49750
X66200Y-50750
X66200Y-71250
X66200Y-72250
X66200Y-73250
X66200Y-74250
X66200Y-75250
X66200Y-82500
X66200Y-83500
X66200Y-84500
X66200Y-85500
X66200Y-86500
X66200Y-93750
X66200Y-94750
X66200Y-95750
X66200Y-96750
X66200Y-97750
X77333Y-59800
X77333Y-62200
X78333Y-59800
X78333Y-62200
X79333Y-59800
X79333Y-62200
X80333Y-59800
X80333Y-62200
X81333Y-59800
X81333Y-62200
X90667Y-59800
X90667Y-62200
X91667Y-59800
X91667Y-62200
X92667Y-59800
X92667Y-62200
X93667Y-59800
X93667Y-62200
X94667Y-59800
X94667Y-62200
X105800Y-24250
X105800Y-25250
X105800Y-26250
X105800Y-27250
X105800Y-28250
X105800Y-35500
X105800Y-36500
X105800Y-37500
X105800Y-38500
X105800Y-39500
X105800Y-46750
X105800Y-47750
X105800Y-48750
X105800Y-49750
X105800Y-50750
X105800Y-71250
X105800Y-72250
X105800Y-73250
X105800Y-74250
X105800Y-75250
X105800Y-82500
X105800Y-83500
X105800Y-84500
X105800Y-85500
X105800Y-86500
X105800Y-93750
X105800Y-94750
X105800Y-95750
X105800Y-96750
X105800Y-97750
T2
X49535Y-53470
X49535Y-100470
X55315Y-53470
X55315Y-100470
X91535Y-53470
X91535Y-100470
X97315Y-53470
X97315Y-100470
T3
X32800Y-18145
X32800Y-65145
X35800Y-18145
X35800Y-65145
X74800Y-18145
X74800Y-65145
X77800Y-18145
X77800Y-65145
T0
M30
