%TF.GenerationSoftware,KiCad,Pcbnew,(6.0.11)*%
%TF.CreationDate,2023-02-14T10:47:04+13:00*%
%TF.ProjectId,stm32_panel,73746d33-325f-4706-916e-656c2e6b6963,rev?*%
%TF.SameCoordinates,Original*%
%TF.FileFunction,Paste,Top*%
%TF.FilePolarity,Positive*%
%FSLAX46Y46*%
G04 Gerber Fmt 4.6, Leading zero omitted, Abs format (unit mm)*
G04 Created by KiCad (PCBNEW (6.0.11)) date 2023-02-14 10:47:04*
%MOMM*%
%LPD*%
G01*
G04 APERTURE LIST*
G04 Aperture macros list*
%AMRoundRect*
0 Rectangle with rounded corners*
0 $1 Rounding radius*
0 $2 $3 $4 $5 $6 $7 $8 $9 X,Y pos of 4 corners*
0 Add a 4 corners polygon primitive as box body*
4,1,4,$2,$3,$4,$5,$6,$7,$8,$9,$2,$3,0*
0 Add four circle primitives for the rounded corners*
1,1,$1+$1,$2,$3*
1,1,$1+$1,$4,$5*
1,1,$1+$1,$6,$7*
1,1,$1+$1,$8,$9*
0 Add four rect primitives between the rounded corners*
20,1,$1+$1,$2,$3,$4,$5,0*
20,1,$1+$1,$4,$5,$6,$7,0*
20,1,$1+$1,$6,$7,$8,$9,0*
20,1,$1+$1,$8,$9,$2,$3,0*%
G04 Aperture macros list end*
%ADD10RoundRect,0.218750X-0.218750X-0.256250X0.218750X-0.256250X0.218750X0.256250X-0.218750X0.256250X0*%
%ADD11RoundRect,0.147500X0.172500X-0.147500X0.172500X0.147500X-0.172500X0.147500X-0.172500X-0.147500X0*%
%ADD12RoundRect,0.218750X0.256250X-0.218750X0.256250X0.218750X-0.256250X0.218750X-0.256250X-0.218750X0*%
%ADD13RoundRect,0.225000X0.250000X-0.225000X0.250000X0.225000X-0.250000X0.225000X-0.250000X-0.225000X0*%
%ADD14R,0.500000X1.100000*%
%ADD15R,1.200000X1.700000*%
%ADD16RoundRect,0.225000X0.225000X0.250000X-0.225000X0.250000X-0.225000X-0.250000X0.225000X-0.250000X0*%
%ADD17R,0.999999X0.949998*%
%ADD18RoundRect,0.135000X0.185000X-0.135000X0.185000X0.135000X-0.185000X0.135000X-0.185000X-0.135000X0*%
%ADD19RoundRect,0.150000X0.150000X-0.512500X0.150000X0.512500X-0.150000X0.512500X-0.150000X-0.512500X0*%
%ADD20RoundRect,0.135000X-0.135000X-0.185000X0.135000X-0.185000X0.135000X0.185000X-0.135000X0.185000X0*%
%ADD21RoundRect,0.140000X0.140000X0.170000X-0.140000X0.170000X-0.140000X-0.170000X0.140000X-0.170000X0*%
%ADD22RoundRect,0.088500X-0.206500X0.516500X-0.206500X-0.516500X0.206500X-0.516500X0.206500X0.516500X0*%
%ADD23RoundRect,0.147500X-0.147500X-0.172500X0.147500X-0.172500X0.147500X0.172500X-0.147500X0.172500X0*%
%ADD24RoundRect,0.140000X0.170000X-0.140000X0.170000X0.140000X-0.170000X0.140000X-0.170000X-0.140000X0*%
%ADD25RoundRect,0.075000X-0.700000X-0.075000X0.700000X-0.075000X0.700000X0.075000X-0.700000X0.075000X0*%
%ADD26RoundRect,0.075000X-0.075000X-0.700000X0.075000X-0.700000X0.075000X0.700000X-0.075000X0.700000X0*%
%ADD27RoundRect,0.135000X-0.185000X0.135000X-0.185000X-0.135000X0.185000X-0.135000X0.185000X0.135000X0*%
%ADD28RoundRect,0.147500X-0.172500X0.147500X-0.172500X-0.147500X0.172500X-0.147500X0.172500X0.147500X0*%
%ADD29RoundRect,0.042000X-0.258000X0.943000X-0.258000X-0.943000X0.258000X-0.943000X0.258000X0.943000X0*%
%ADD30R,1.200000X1.400000*%
%ADD31RoundRect,0.140000X-0.140000X-0.170000X0.140000X-0.170000X0.140000X0.170000X-0.140000X0.170000X0*%
%ADD32RoundRect,0.218750X-0.256250X0.218750X-0.256250X-0.218750X0.256250X-0.218750X0.256250X0.218750X0*%
%ADD33RoundRect,0.140000X-0.170000X0.140000X-0.170000X-0.140000X0.170000X-0.140000X0.170000X0.140000X0*%
%ADD34RoundRect,0.135000X0.135000X0.185000X-0.135000X0.185000X-0.135000X-0.185000X0.135000X-0.185000X0*%
%ADD35R,0.949998X0.999999*%
%ADD36R,0.250000X0.475000*%
%ADD37R,0.475000X0.250000*%
%ADD38RoundRect,0.225000X-0.225000X-0.250000X0.225000X-0.250000X0.225000X0.250000X-0.225000X0.250000X0*%
%ADD39R,1.000000X0.800000*%
%ADD40R,0.700000X1.500000*%
%ADD41R,0.600000X1.150000*%
%ADD42R,0.300000X1.150000*%
%ADD43R,2.180000X2.000000*%
G04 APERTURE END LIST*
D10*
%TO.C,D308*%
X73672500Y-29970000D03*
X75247500Y-29970000D03*
%TD*%
D11*
%TO.C,D502*%
X59550000Y-77265000D03*
X59550000Y-76295000D03*
%TD*%
D12*
%TO.C,D301*%
X89505000Y-50457500D03*
X89505000Y-48882500D03*
%TD*%
D13*
%TO.C,C306*%
X50255000Y-31765000D03*
X50255000Y-30215000D03*
%TD*%
D14*
%TO.C,J401*%
X40350000Y-103800000D03*
X39550000Y-103800000D03*
X38750000Y-103800000D03*
X37950000Y-103800000D03*
D15*
X41650000Y-105200000D03*
X36650000Y-105200000D03*
%TD*%
D16*
%TO.C,C303*%
X100885000Y-89440000D03*
X99335000Y-89440000D03*
%TD*%
D17*
%TO.C,C205*%
X95935001Y-88480000D03*
X97384999Y-88480000D03*
%TD*%
D18*
%TO.C,R314*%
X93305000Y-70865000D03*
X93305000Y-69845000D03*
%TD*%
D19*
%TO.C,U302*%
X51425000Y-49452500D03*
X52375000Y-49452500D03*
X53325000Y-49452500D03*
X53325000Y-47177500D03*
X52375000Y-47177500D03*
X51425000Y-47177500D03*
%TD*%
D20*
%TO.C,R306*%
X90905000Y-49005000D03*
X91925000Y-49005000D03*
%TD*%
D18*
%TO.C,R316*%
X45600000Y-23770000D03*
X45600000Y-22750000D03*
%TD*%
D21*
%TO.C,C501*%
X55390000Y-26975000D03*
X54430000Y-26975000D03*
%TD*%
D14*
%TO.C,J401*%
X82350000Y-103800000D03*
X81550000Y-103800000D03*
X80750000Y-103800000D03*
X79950000Y-103800000D03*
D15*
X83650000Y-105200000D03*
X78650000Y-105200000D03*
%TD*%
D22*
%TO.C,U201*%
X98650000Y-84182500D03*
X97700000Y-84182500D03*
X96750000Y-84182500D03*
X96750000Y-86692500D03*
X98650000Y-86692500D03*
%TD*%
D13*
%TO.C,C306*%
X92255000Y-31765000D03*
X92255000Y-30215000D03*
%TD*%
D23*
%TO.C,D306*%
X97715000Y-97300000D03*
X98685000Y-97300000D03*
%TD*%
D19*
%TO.C,U302*%
X93425000Y-96452500D03*
X94375000Y-96452500D03*
X95325000Y-96452500D03*
X95325000Y-94177500D03*
X94375000Y-94177500D03*
X93425000Y-94177500D03*
%TD*%
D18*
%TO.C,R502*%
X100230000Y-31290000D03*
X100230000Y-30270000D03*
%TD*%
%TO.C,R317*%
X30290000Y-30220000D03*
X30290000Y-29200000D03*
%TD*%
D24*
%TO.C,C312*%
X54800000Y-48330000D03*
X54800000Y-47370000D03*
%TD*%
D25*
%TO.C,U301*%
X37325000Y-80090000D03*
X37325000Y-80590000D03*
X37325000Y-81090000D03*
X37325000Y-81590000D03*
X37325000Y-82090000D03*
X37325000Y-82590000D03*
X37325000Y-83090000D03*
X37325000Y-83590000D03*
X37325000Y-84090000D03*
X37325000Y-84590000D03*
X37325000Y-85090000D03*
X37325000Y-85590000D03*
X37325000Y-86090000D03*
X37325000Y-86590000D03*
X37325000Y-87090000D03*
X37325000Y-87590000D03*
D26*
X39250000Y-89515000D03*
X39750000Y-89515000D03*
X40250000Y-89515000D03*
X40750000Y-89515000D03*
X41250000Y-89515000D03*
X41750000Y-89515000D03*
X42250000Y-89515000D03*
X42750000Y-89515000D03*
X43250000Y-89515000D03*
X43750000Y-89515000D03*
X44250000Y-89515000D03*
X44750000Y-89515000D03*
X45250000Y-89515000D03*
X45750000Y-89515000D03*
X46250000Y-89515000D03*
X46750000Y-89515000D03*
D25*
X48675000Y-87590000D03*
X48675000Y-87090000D03*
X48675000Y-86590000D03*
X48675000Y-86090000D03*
X48675000Y-85590000D03*
X48675000Y-85090000D03*
X48675000Y-84590000D03*
X48675000Y-84090000D03*
X48675000Y-83590000D03*
X48675000Y-83090000D03*
X48675000Y-82590000D03*
X48675000Y-82090000D03*
X48675000Y-81590000D03*
X48675000Y-81090000D03*
X48675000Y-80590000D03*
X48675000Y-80090000D03*
D26*
X46750000Y-78165000D03*
X46250000Y-78165000D03*
X45750000Y-78165000D03*
X45250000Y-78165000D03*
X44750000Y-78165000D03*
X44250000Y-78165000D03*
X43750000Y-78165000D03*
X43250000Y-78165000D03*
X42750000Y-78165000D03*
X42250000Y-78165000D03*
X41750000Y-78165000D03*
X41250000Y-78165000D03*
X40750000Y-78165000D03*
X40250000Y-78165000D03*
X39750000Y-78165000D03*
X39250000Y-78165000D03*
%TD*%
D27*
%TO.C,R308*%
X50200000Y-41715000D03*
X50200000Y-42735000D03*
%TD*%
D21*
%TO.C,C308*%
X40325000Y-44260000D03*
X39365000Y-44260000D03*
%TD*%
D18*
%TO.C,R305*%
X97900000Y-49310000D03*
X97900000Y-48290000D03*
%TD*%
D12*
%TO.C,D301*%
X89505000Y-97457500D03*
X89505000Y-95882500D03*
%TD*%
D28*
%TO.C,D303*%
X46710000Y-22770000D03*
X46710000Y-23740000D03*
%TD*%
D29*
%TO.C,U501*%
X56755000Y-28980000D03*
X55485000Y-28980000D03*
X54215000Y-28980000D03*
X52945000Y-28980000D03*
X52945000Y-33920000D03*
X54215000Y-33920000D03*
X55485000Y-33920000D03*
X56755000Y-33920000D03*
%TD*%
D23*
%TO.C,D503*%
X59615000Y-78415000D03*
X60585000Y-78415000D03*
%TD*%
D20*
%TO.C,R310*%
X43010000Y-92670000D03*
X44030000Y-92670000D03*
%TD*%
D22*
%TO.C,U201*%
X56650000Y-37182500D03*
X55700000Y-37182500D03*
X54750000Y-37182500D03*
X54750000Y-39692500D03*
X56650000Y-39692500D03*
%TD*%
D16*
%TO.C,C303*%
X58885000Y-42440000D03*
X57335000Y-42440000D03*
%TD*%
D30*
%TO.C,Y301*%
X30815000Y-33625000D03*
X30815000Y-35825000D03*
X32515000Y-35825000D03*
X32515000Y-33625000D03*
%TD*%
D31*
%TO.C,C401*%
X32385000Y-96245000D03*
X33345000Y-96245000D03*
%TD*%
D32*
%TO.C,D307*%
X34820000Y-28762500D03*
X34820000Y-30337500D03*
%TD*%
D24*
%TO.C,C403*%
X32790000Y-98525000D03*
X32790000Y-97565000D03*
%TD*%
D20*
%TO.C,R306*%
X48905000Y-96005000D03*
X49925000Y-96005000D03*
%TD*%
D18*
%TO.C,R314*%
X51305000Y-23865000D03*
X51305000Y-22845000D03*
%TD*%
D24*
%TO.C,C402*%
X73015000Y-50555000D03*
X73015000Y-49595000D03*
%TD*%
D19*
%TO.C,U302*%
X51425000Y-96452500D03*
X52375000Y-96452500D03*
X53325000Y-96452500D03*
X53325000Y-94177500D03*
X52375000Y-94177500D03*
X51425000Y-94177500D03*
%TD*%
D27*
%TO.C,R401*%
X39800000Y-53640000D03*
X39800000Y-54660000D03*
%TD*%
D21*
%TO.C,C501*%
X55390000Y-73975000D03*
X54430000Y-73975000D03*
%TD*%
D18*
%TO.C,R315*%
X47930000Y-23805000D03*
X47930000Y-22785000D03*
%TD*%
D33*
%TO.C,C302*%
X34406315Y-82806315D03*
X34406315Y-83766315D03*
%TD*%
D24*
%TO.C,C403*%
X74790000Y-98525000D03*
X74790000Y-97565000D03*
%TD*%
D28*
%TO.C,D305*%
X92225000Y-69790000D03*
X92225000Y-70760000D03*
%TD*%
D27*
%TO.C,R402*%
X38530000Y-53590000D03*
X38530000Y-54610000D03*
%TD*%
D21*
%TO.C,C501*%
X97390000Y-26975000D03*
X96430000Y-26975000D03*
%TD*%
D34*
%TO.C,R313*%
X33380000Y-28560000D03*
X32360000Y-28560000D03*
%TD*%
%TO.C,R313*%
X75380000Y-28560000D03*
X74360000Y-28560000D03*
%TD*%
D20*
%TO.C,R306*%
X90905000Y-96005000D03*
X91925000Y-96005000D03*
%TD*%
D19*
%TO.C,U302*%
X93425000Y-49452500D03*
X94375000Y-49452500D03*
X95325000Y-49452500D03*
X95325000Y-47177500D03*
X94375000Y-47177500D03*
X93425000Y-47177500D03*
%TD*%
D16*
%TO.C,C303*%
X58885000Y-89440000D03*
X57335000Y-89440000D03*
%TD*%
D35*
%TO.C,C201*%
X100655000Y-81220001D03*
X100655000Y-82669999D03*
%TD*%
D24*
%TO.C,C403*%
X32790000Y-51525000D03*
X32790000Y-50565000D03*
%TD*%
D31*
%TO.C,C307*%
X90095000Y-42890000D03*
X91055000Y-42890000D03*
%TD*%
D36*
%TO.C,U401*%
X36265000Y-96352500D03*
X35765000Y-96352500D03*
X35265000Y-96352500D03*
X34765000Y-96352500D03*
D37*
X34602500Y-97015000D03*
X34602500Y-97515000D03*
X34602500Y-98015000D03*
D36*
X34765000Y-98677500D03*
X35265000Y-98677500D03*
X35765000Y-98677500D03*
X36265000Y-98677500D03*
D37*
X36427500Y-98015000D03*
X36427500Y-97515000D03*
X36427500Y-97015000D03*
%TD*%
D10*
%TO.C,D308*%
X31672500Y-76970000D03*
X33247500Y-76970000D03*
%TD*%
D38*
%TO.C,C304*%
X47495000Y-44455000D03*
X49045000Y-44455000D03*
%TD*%
D23*
%TO.C,D503*%
X101615000Y-31415000D03*
X102585000Y-31415000D03*
%TD*%
D18*
%TO.C,R316*%
X87600000Y-70770000D03*
X87600000Y-69750000D03*
%TD*%
D25*
%TO.C,U301*%
X37325000Y-33090000D03*
X37325000Y-33590000D03*
X37325000Y-34090000D03*
X37325000Y-34590000D03*
X37325000Y-35090000D03*
X37325000Y-35590000D03*
X37325000Y-36090000D03*
X37325000Y-36590000D03*
X37325000Y-37090000D03*
X37325000Y-37590000D03*
X37325000Y-38090000D03*
X37325000Y-38590000D03*
X37325000Y-39090000D03*
X37325000Y-39590000D03*
X37325000Y-40090000D03*
X37325000Y-40590000D03*
D26*
X39250000Y-42515000D03*
X39750000Y-42515000D03*
X40250000Y-42515000D03*
X40750000Y-42515000D03*
X41250000Y-42515000D03*
X41750000Y-42515000D03*
X42250000Y-42515000D03*
X42750000Y-42515000D03*
X43250000Y-42515000D03*
X43750000Y-42515000D03*
X44250000Y-42515000D03*
X44750000Y-42515000D03*
X45250000Y-42515000D03*
X45750000Y-42515000D03*
X46250000Y-42515000D03*
X46750000Y-42515000D03*
D25*
X48675000Y-40590000D03*
X48675000Y-40090000D03*
X48675000Y-39590000D03*
X48675000Y-39090000D03*
X48675000Y-38590000D03*
X48675000Y-38090000D03*
X48675000Y-37590000D03*
X48675000Y-37090000D03*
X48675000Y-36590000D03*
X48675000Y-36090000D03*
X48675000Y-35590000D03*
X48675000Y-35090000D03*
X48675000Y-34590000D03*
X48675000Y-34090000D03*
X48675000Y-33590000D03*
X48675000Y-33090000D03*
D26*
X46750000Y-31165000D03*
X46250000Y-31165000D03*
X45750000Y-31165000D03*
X45250000Y-31165000D03*
X44750000Y-31165000D03*
X44250000Y-31165000D03*
X43750000Y-31165000D03*
X43250000Y-31165000D03*
X42750000Y-31165000D03*
X42250000Y-31165000D03*
X41750000Y-31165000D03*
X41250000Y-31165000D03*
X40750000Y-31165000D03*
X40250000Y-31165000D03*
X39750000Y-31165000D03*
X39250000Y-31165000D03*
%TD*%
D24*
%TO.C,C305*%
X48905000Y-78890000D03*
X48905000Y-77930000D03*
%TD*%
D27*
%TO.C,R401*%
X81800000Y-100640000D03*
X81800000Y-101660000D03*
%TD*%
D17*
%TO.C,C205*%
X95935001Y-41480000D03*
X97384999Y-41480000D03*
%TD*%
D24*
%TO.C,C301*%
X76021315Y-81841315D03*
X76021315Y-80881315D03*
%TD*%
D28*
%TO.C,D304*%
X49025000Y-22785000D03*
X49025000Y-23755000D03*
%TD*%
D35*
%TO.C,C201*%
X58655000Y-34220001D03*
X58655000Y-35669999D03*
%TD*%
D18*
%TO.C,R305*%
X55900000Y-49310000D03*
X55900000Y-48290000D03*
%TD*%
D11*
%TO.C,D502*%
X101550000Y-77265000D03*
X101550000Y-76295000D03*
%TD*%
D24*
%TO.C,C309*%
X78920000Y-31785000D03*
X78920000Y-30825000D03*
%TD*%
D18*
%TO.C,R317*%
X72290000Y-30220000D03*
X72290000Y-29200000D03*
%TD*%
D23*
%TO.C,D306*%
X55715000Y-50300000D03*
X56685000Y-50300000D03*
%TD*%
D22*
%TO.C,U201*%
X56650000Y-84182500D03*
X55700000Y-84182500D03*
X54750000Y-84182500D03*
X54750000Y-86692500D03*
X56650000Y-86692500D03*
%TD*%
D39*
%TO.C,SW301*%
X79950000Y-19255000D03*
X79950000Y-17045000D03*
X72650000Y-19255000D03*
X72650000Y-17045000D03*
D40*
X78550000Y-19905000D03*
X75550000Y-19905000D03*
X74050000Y-19905000D03*
%TD*%
D18*
%TO.C,R315*%
X47930000Y-70805000D03*
X47930000Y-69785000D03*
%TD*%
D13*
%TO.C,C306*%
X50255000Y-78765000D03*
X50255000Y-77215000D03*
%TD*%
D34*
%TO.C,R309*%
X85795000Y-28705000D03*
X84775000Y-28705000D03*
%TD*%
D21*
%TO.C,C308*%
X40325000Y-91260000D03*
X39365000Y-91260000D03*
%TD*%
D10*
%TO.C,D308*%
X73672500Y-76970000D03*
X75247500Y-76970000D03*
%TD*%
D27*
%TO.C,R401*%
X39800000Y-100640000D03*
X39800000Y-101660000D03*
%TD*%
D28*
%TO.C,D302*%
X52505000Y-69875000D03*
X52505000Y-70845000D03*
%TD*%
D24*
%TO.C,C309*%
X36920000Y-31785000D03*
X36920000Y-30825000D03*
%TD*%
%TO.C,C305*%
X90905000Y-31890000D03*
X90905000Y-30930000D03*
%TD*%
D36*
%TO.C,U401*%
X36265000Y-49352500D03*
X35765000Y-49352500D03*
X35265000Y-49352500D03*
X34765000Y-49352500D03*
D37*
X34602500Y-50015000D03*
X34602500Y-50515000D03*
X34602500Y-51015000D03*
D36*
X34765000Y-51677500D03*
X35265000Y-51677500D03*
X35765000Y-51677500D03*
X36265000Y-51677500D03*
D37*
X36427500Y-51015000D03*
X36427500Y-50515000D03*
X36427500Y-50015000D03*
%TD*%
D20*
%TO.C,R310*%
X43010000Y-45670000D03*
X44030000Y-45670000D03*
%TD*%
D24*
%TO.C,C301*%
X76021315Y-34841315D03*
X76021315Y-33881315D03*
%TD*%
D18*
%TO.C,R305*%
X97900000Y-96310000D03*
X97900000Y-95290000D03*
%TD*%
D29*
%TO.C,U501*%
X98755000Y-28980000D03*
X97485000Y-28980000D03*
X96215000Y-28980000D03*
X94945000Y-28980000D03*
X94945000Y-33920000D03*
X96215000Y-33920000D03*
X97485000Y-33920000D03*
X98755000Y-33920000D03*
%TD*%
D35*
%TO.C,C201*%
X58655000Y-81220001D03*
X58655000Y-82669999D03*
%TD*%
D21*
%TO.C,C308*%
X82325000Y-91260000D03*
X81365000Y-91260000D03*
%TD*%
D18*
%TO.C,R303*%
X75550000Y-22550000D03*
X75550000Y-21530000D03*
%TD*%
D33*
%TO.C,C302*%
X34406315Y-35806315D03*
X34406315Y-36766315D03*
%TD*%
D34*
%TO.C,R208*%
X101040000Y-37295000D03*
X100020000Y-37295000D03*
%TD*%
D38*
%TO.C,C304*%
X89495000Y-91455000D03*
X91045000Y-91455000D03*
%TD*%
D28*
%TO.C,D304*%
X91025000Y-22785000D03*
X91025000Y-23755000D03*
%TD*%
D41*
%TO.C,J302*%
X49225000Y-99395000D03*
X50025000Y-99395000D03*
D42*
X51175000Y-99395000D03*
X52175000Y-99395000D03*
X52675000Y-99395000D03*
X53675000Y-99395000D03*
D41*
X55625000Y-99395000D03*
X54825000Y-99395000D03*
D42*
X54175000Y-99395000D03*
X53175000Y-99395000D03*
X51675000Y-99395000D03*
X50675000Y-99395000D03*
D43*
X47315000Y-99970000D03*
X57535000Y-99970000D03*
X47315000Y-103900000D03*
X57535000Y-103900000D03*
%TD*%
D36*
%TO.C,U401*%
X78265000Y-96352500D03*
X77765000Y-96352500D03*
X77265000Y-96352500D03*
X76765000Y-96352500D03*
D37*
X76602500Y-97015000D03*
X76602500Y-97515000D03*
X76602500Y-98015000D03*
D36*
X76765000Y-98677500D03*
X77265000Y-98677500D03*
X77765000Y-98677500D03*
X78265000Y-98677500D03*
D37*
X78427500Y-98015000D03*
X78427500Y-97515000D03*
X78427500Y-97015000D03*
%TD*%
D20*
%TO.C,R304*%
X48940000Y-97200000D03*
X49960000Y-97200000D03*
%TD*%
D27*
%TO.C,R301*%
X80095000Y-95770000D03*
X80095000Y-96790000D03*
%TD*%
D18*
%TO.C,R316*%
X87600000Y-23770000D03*
X87600000Y-22750000D03*
%TD*%
%TO.C,R305*%
X55900000Y-96310000D03*
X55900000Y-95290000D03*
%TD*%
D20*
%TO.C,R304*%
X90940000Y-50200000D03*
X91960000Y-50200000D03*
%TD*%
D38*
%TO.C,C304*%
X89495000Y-44455000D03*
X91045000Y-44455000D03*
%TD*%
D24*
%TO.C,C305*%
X90905000Y-78890000D03*
X90905000Y-77930000D03*
%TD*%
D18*
%TO.C,R307*%
X80065000Y-51830000D03*
X80065000Y-50810000D03*
%TD*%
D32*
%TO.C,D307*%
X76820000Y-28762500D03*
X76820000Y-30337500D03*
%TD*%
D31*
%TO.C,C310*%
X80370000Y-76350000D03*
X81330000Y-76350000D03*
%TD*%
D18*
%TO.C,R302*%
X77460000Y-83855000D03*
X77460000Y-82835000D03*
%TD*%
D24*
%TO.C,C312*%
X96800000Y-95330000D03*
X96800000Y-94370000D03*
%TD*%
D28*
%TO.C,D302*%
X52505000Y-22875000D03*
X52505000Y-23845000D03*
%TD*%
D23*
%TO.C,D306*%
X55715000Y-97300000D03*
X56685000Y-97300000D03*
%TD*%
D31*
%TO.C,C310*%
X38370000Y-29350000D03*
X39330000Y-29350000D03*
%TD*%
D24*
%TO.C,C402*%
X31015000Y-50555000D03*
X31015000Y-49595000D03*
%TD*%
D18*
%TO.C,R314*%
X93305000Y-23865000D03*
X93305000Y-22845000D03*
%TD*%
D27*
%TO.C,R308*%
X92200000Y-41715000D03*
X92200000Y-42735000D03*
%TD*%
D24*
%TO.C,C311*%
X34640000Y-86230000D03*
X34640000Y-85270000D03*
%TD*%
%TO.C,C305*%
X48905000Y-31890000D03*
X48905000Y-30930000D03*
%TD*%
D34*
%TO.C,R313*%
X75380000Y-75560000D03*
X74360000Y-75560000D03*
%TD*%
D18*
%TO.C,R302*%
X35460000Y-36855000D03*
X35460000Y-35835000D03*
%TD*%
D34*
%TO.C,R312*%
X88135000Y-45010000D03*
X87115000Y-45010000D03*
%TD*%
D28*
%TO.C,D304*%
X49025000Y-69785000D03*
X49025000Y-70755000D03*
%TD*%
%TO.C,D305*%
X50225000Y-22790000D03*
X50225000Y-23760000D03*
%TD*%
D35*
%TO.C,C201*%
X100655000Y-34220001D03*
X100655000Y-35669999D03*
%TD*%
D41*
%TO.C,J302*%
X91225000Y-99395000D03*
X92025000Y-99395000D03*
D42*
X93175000Y-99395000D03*
X94175000Y-99395000D03*
X94675000Y-99395000D03*
X95675000Y-99395000D03*
D41*
X97625000Y-99395000D03*
X96825000Y-99395000D03*
D42*
X96175000Y-99395000D03*
X95175000Y-99395000D03*
X93675000Y-99395000D03*
X92675000Y-99395000D03*
D43*
X89315000Y-99970000D03*
X99535000Y-99970000D03*
X89315000Y-103900000D03*
X99535000Y-103900000D03*
%TD*%
D34*
%TO.C,R208*%
X101040000Y-84295000D03*
X100020000Y-84295000D03*
%TD*%
D11*
%TO.C,D502*%
X59550000Y-30265000D03*
X59550000Y-29295000D03*
%TD*%
D27*
%TO.C,R311*%
X83845000Y-73645000D03*
X83845000Y-74665000D03*
%TD*%
D21*
%TO.C,C501*%
X97390000Y-73975000D03*
X96430000Y-73975000D03*
%TD*%
D14*
%TO.C,J401*%
X40350000Y-56800000D03*
X39550000Y-56800000D03*
X38750000Y-56800000D03*
X37950000Y-56800000D03*
D15*
X41650000Y-58200000D03*
X36650000Y-58200000D03*
%TD*%
D28*
%TO.C,D302*%
X94505000Y-69875000D03*
X94505000Y-70845000D03*
%TD*%
D20*
%TO.C,R304*%
X48940000Y-50200000D03*
X49960000Y-50200000D03*
%TD*%
D14*
%TO.C,J401*%
X82350000Y-56800000D03*
X81550000Y-56800000D03*
X80750000Y-56800000D03*
X79950000Y-56800000D03*
D15*
X83650000Y-58200000D03*
X78650000Y-58200000D03*
%TD*%
D28*
%TO.C,D305*%
X50225000Y-69790000D03*
X50225000Y-70760000D03*
%TD*%
D18*
%TO.C,R302*%
X35460000Y-83855000D03*
X35460000Y-82835000D03*
%TD*%
%TO.C,R502*%
X100230000Y-78290000D03*
X100230000Y-77270000D03*
%TD*%
D34*
%TO.C,R208*%
X59040000Y-84295000D03*
X58020000Y-84295000D03*
%TD*%
D20*
%TO.C,R310*%
X85010000Y-92670000D03*
X86030000Y-92670000D03*
%TD*%
D17*
%TO.C,C205*%
X53935001Y-88480000D03*
X55384999Y-88480000D03*
%TD*%
D23*
%TO.C,D306*%
X97715000Y-50300000D03*
X98685000Y-50300000D03*
%TD*%
D18*
%TO.C,R315*%
X89930000Y-70805000D03*
X89930000Y-69785000D03*
%TD*%
D34*
%TO.C,R208*%
X59040000Y-37295000D03*
X58020000Y-37295000D03*
%TD*%
D17*
%TO.C,C205*%
X53935001Y-41480000D03*
X55384999Y-41480000D03*
%TD*%
D24*
%TO.C,C402*%
X73015000Y-97555000D03*
X73015000Y-96595000D03*
%TD*%
D34*
%TO.C,R313*%
X33380000Y-75560000D03*
X32360000Y-75560000D03*
%TD*%
D32*
%TO.C,D307*%
X34820000Y-75762500D03*
X34820000Y-77337500D03*
%TD*%
%TO.C,D204*%
X100400000Y-38832500D03*
X100400000Y-40407500D03*
%TD*%
D24*
%TO.C,C309*%
X36920000Y-78785000D03*
X36920000Y-77825000D03*
%TD*%
D22*
%TO.C,U201*%
X98650000Y-37182500D03*
X97700000Y-37182500D03*
X96750000Y-37182500D03*
X96750000Y-39692500D03*
X98650000Y-39692500D03*
%TD*%
D28*
%TO.C,D303*%
X88710000Y-22770000D03*
X88710000Y-23740000D03*
%TD*%
D34*
%TO.C,R312*%
X88135000Y-92010000D03*
X87115000Y-92010000D03*
%TD*%
%TO.C,R309*%
X43795000Y-75705000D03*
X42775000Y-75705000D03*
%TD*%
D10*
%TO.C,D308*%
X31672500Y-29970000D03*
X33247500Y-29970000D03*
%TD*%
D33*
%TO.C,C302*%
X76406315Y-35806315D03*
X76406315Y-36766315D03*
%TD*%
D27*
%TO.C,R308*%
X92200000Y-88715000D03*
X92200000Y-89735000D03*
%TD*%
D32*
%TO.C,D307*%
X76820000Y-75762500D03*
X76820000Y-77337500D03*
%TD*%
D28*
%TO.C,D303*%
X88710000Y-69770000D03*
X88710000Y-70740000D03*
%TD*%
D39*
%TO.C,SW301*%
X30650000Y-64045000D03*
X37950000Y-64045000D03*
X30650000Y-66255000D03*
X37950000Y-66255000D03*
D40*
X36550000Y-66905000D03*
X33550000Y-66905000D03*
X32050000Y-66905000D03*
%TD*%
D18*
%TO.C,R307*%
X80065000Y-98830000D03*
X80065000Y-97810000D03*
%TD*%
D24*
%TO.C,C402*%
X31015000Y-97555000D03*
X31015000Y-96595000D03*
%TD*%
D18*
%TO.C,R307*%
X38065000Y-98830000D03*
X38065000Y-97810000D03*
%TD*%
D30*
%TO.C,Y301*%
X72815000Y-33625000D03*
X72815000Y-35825000D03*
X74515000Y-35825000D03*
X74515000Y-33625000D03*
%TD*%
D18*
%TO.C,R502*%
X58230000Y-31290000D03*
X58230000Y-30270000D03*
%TD*%
D28*
%TO.C,D303*%
X46710000Y-69770000D03*
X46710000Y-70740000D03*
%TD*%
D20*
%TO.C,R304*%
X90940000Y-97200000D03*
X91960000Y-97200000D03*
%TD*%
D31*
%TO.C,C307*%
X90095000Y-89890000D03*
X91055000Y-89890000D03*
%TD*%
D32*
%TO.C,D204*%
X100400000Y-85832500D03*
X100400000Y-87407500D03*
%TD*%
D27*
%TO.C,R301*%
X38095000Y-48770000D03*
X38095000Y-49790000D03*
%TD*%
D36*
%TO.C,U401*%
X78265000Y-49352500D03*
X77765000Y-49352500D03*
X77265000Y-49352500D03*
X76765000Y-49352500D03*
D37*
X76602500Y-50015000D03*
X76602500Y-50515000D03*
X76602500Y-51015000D03*
D36*
X76765000Y-51677500D03*
X77265000Y-51677500D03*
X77765000Y-51677500D03*
X78265000Y-51677500D03*
D37*
X78427500Y-51015000D03*
X78427500Y-50515000D03*
X78427500Y-50015000D03*
%TD*%
D31*
%TO.C,C401*%
X74385000Y-96245000D03*
X75345000Y-96245000D03*
%TD*%
D41*
%TO.C,J302*%
X49225000Y-52395000D03*
X50025000Y-52395000D03*
D42*
X51175000Y-52395000D03*
X52175000Y-52395000D03*
X52675000Y-52395000D03*
X53675000Y-52395000D03*
D41*
X55625000Y-52395000D03*
X54825000Y-52395000D03*
D42*
X54175000Y-52395000D03*
X53175000Y-52395000D03*
X51675000Y-52395000D03*
X50675000Y-52395000D03*
D43*
X47315000Y-52970000D03*
X57535000Y-52970000D03*
X47315000Y-56900000D03*
X57535000Y-56900000D03*
%TD*%
D25*
%TO.C,U301*%
X79325000Y-33090000D03*
X79325000Y-33590000D03*
X79325000Y-34090000D03*
X79325000Y-34590000D03*
X79325000Y-35090000D03*
X79325000Y-35590000D03*
X79325000Y-36090000D03*
X79325000Y-36590000D03*
X79325000Y-37090000D03*
X79325000Y-37590000D03*
X79325000Y-38090000D03*
X79325000Y-38590000D03*
X79325000Y-39090000D03*
X79325000Y-39590000D03*
X79325000Y-40090000D03*
X79325000Y-40590000D03*
D26*
X81250000Y-42515000D03*
X81750000Y-42515000D03*
X82250000Y-42515000D03*
X82750000Y-42515000D03*
X83250000Y-42515000D03*
X83750000Y-42515000D03*
X84250000Y-42515000D03*
X84750000Y-42515000D03*
X85250000Y-42515000D03*
X85750000Y-42515000D03*
X86250000Y-42515000D03*
X86750000Y-42515000D03*
X87250000Y-42515000D03*
X87750000Y-42515000D03*
X88250000Y-42515000D03*
X88750000Y-42515000D03*
D25*
X90675000Y-40590000D03*
X90675000Y-40090000D03*
X90675000Y-39590000D03*
X90675000Y-39090000D03*
X90675000Y-38590000D03*
X90675000Y-38090000D03*
X90675000Y-37590000D03*
X90675000Y-37090000D03*
X90675000Y-36590000D03*
X90675000Y-36090000D03*
X90675000Y-35590000D03*
X90675000Y-35090000D03*
X90675000Y-34590000D03*
X90675000Y-34090000D03*
X90675000Y-33590000D03*
X90675000Y-33090000D03*
D26*
X88750000Y-31165000D03*
X88250000Y-31165000D03*
X87750000Y-31165000D03*
X87250000Y-31165000D03*
X86750000Y-31165000D03*
X86250000Y-31165000D03*
X85750000Y-31165000D03*
X85250000Y-31165000D03*
X84750000Y-31165000D03*
X84250000Y-31165000D03*
X83750000Y-31165000D03*
X83250000Y-31165000D03*
X82750000Y-31165000D03*
X82250000Y-31165000D03*
X81750000Y-31165000D03*
X81250000Y-31165000D03*
%TD*%
D24*
%TO.C,C301*%
X34021315Y-81841315D03*
X34021315Y-80881315D03*
%TD*%
D27*
%TO.C,R301*%
X80095000Y-48770000D03*
X80095000Y-49790000D03*
%TD*%
D33*
%TO.C,C302*%
X76406315Y-82806315D03*
X76406315Y-83766315D03*
%TD*%
D24*
%TO.C,C301*%
X34021315Y-34841315D03*
X34021315Y-33881315D03*
%TD*%
D31*
%TO.C,C401*%
X74385000Y-49245000D03*
X75345000Y-49245000D03*
%TD*%
D25*
%TO.C,U301*%
X79325000Y-80090000D03*
X79325000Y-80590000D03*
X79325000Y-81090000D03*
X79325000Y-81590000D03*
X79325000Y-82090000D03*
X79325000Y-82590000D03*
X79325000Y-83090000D03*
X79325000Y-83590000D03*
X79325000Y-84090000D03*
X79325000Y-84590000D03*
X79325000Y-85090000D03*
X79325000Y-85590000D03*
X79325000Y-86090000D03*
X79325000Y-86590000D03*
X79325000Y-87090000D03*
X79325000Y-87590000D03*
D26*
X81250000Y-89515000D03*
X81750000Y-89515000D03*
X82250000Y-89515000D03*
X82750000Y-89515000D03*
X83250000Y-89515000D03*
X83750000Y-89515000D03*
X84250000Y-89515000D03*
X84750000Y-89515000D03*
X85250000Y-89515000D03*
X85750000Y-89515000D03*
X86250000Y-89515000D03*
X86750000Y-89515000D03*
X87250000Y-89515000D03*
X87750000Y-89515000D03*
X88250000Y-89515000D03*
X88750000Y-89515000D03*
D25*
X90675000Y-87590000D03*
X90675000Y-87090000D03*
X90675000Y-86590000D03*
X90675000Y-86090000D03*
X90675000Y-85590000D03*
X90675000Y-85090000D03*
X90675000Y-84590000D03*
X90675000Y-84090000D03*
X90675000Y-83590000D03*
X90675000Y-83090000D03*
X90675000Y-82590000D03*
X90675000Y-82090000D03*
X90675000Y-81590000D03*
X90675000Y-81090000D03*
X90675000Y-80590000D03*
X90675000Y-80090000D03*
D26*
X88750000Y-78165000D03*
X88250000Y-78165000D03*
X87750000Y-78165000D03*
X87250000Y-78165000D03*
X86750000Y-78165000D03*
X86250000Y-78165000D03*
X85750000Y-78165000D03*
X85250000Y-78165000D03*
X84750000Y-78165000D03*
X84250000Y-78165000D03*
X83750000Y-78165000D03*
X83250000Y-78165000D03*
X82750000Y-78165000D03*
X82250000Y-78165000D03*
X81750000Y-78165000D03*
X81250000Y-78165000D03*
%TD*%
D31*
%TO.C,C310*%
X80370000Y-29350000D03*
X81330000Y-29350000D03*
%TD*%
D24*
%TO.C,C311*%
X76640000Y-39230000D03*
X76640000Y-38270000D03*
%TD*%
D34*
%TO.C,R309*%
X43795000Y-28705000D03*
X42775000Y-28705000D03*
%TD*%
D20*
%TO.C,R306*%
X48905000Y-49005000D03*
X49925000Y-49005000D03*
%TD*%
%TO.C,R310*%
X85010000Y-45670000D03*
X86030000Y-45670000D03*
%TD*%
D27*
%TO.C,R402*%
X38530000Y-100590000D03*
X38530000Y-101610000D03*
%TD*%
D18*
%TO.C,R317*%
X30290000Y-77220000D03*
X30290000Y-76200000D03*
%TD*%
D31*
%TO.C,C307*%
X48095000Y-42890000D03*
X49055000Y-42890000D03*
%TD*%
D18*
%TO.C,R303*%
X33550000Y-69550000D03*
X33550000Y-68530000D03*
%TD*%
D38*
%TO.C,C304*%
X47495000Y-91455000D03*
X49045000Y-91455000D03*
%TD*%
D28*
%TO.C,D302*%
X94505000Y-22875000D03*
X94505000Y-23845000D03*
%TD*%
D18*
%TO.C,R302*%
X77460000Y-36855000D03*
X77460000Y-35835000D03*
%TD*%
D27*
%TO.C,R311*%
X83845000Y-26645000D03*
X83845000Y-27665000D03*
%TD*%
D39*
%TO.C,SW301*%
X30650000Y-19255000D03*
X37950000Y-17045000D03*
X30650000Y-17045000D03*
X37950000Y-19255000D03*
D40*
X36550000Y-19905000D03*
X33550000Y-19905000D03*
X32050000Y-19905000D03*
%TD*%
D30*
%TO.C,Y301*%
X30815000Y-80625000D03*
X30815000Y-82825000D03*
X32515000Y-82825000D03*
X32515000Y-80625000D03*
%TD*%
D31*
%TO.C,C307*%
X48095000Y-89890000D03*
X49055000Y-89890000D03*
%TD*%
D30*
%TO.C,Y301*%
X72815000Y-80625000D03*
X72815000Y-82825000D03*
X74515000Y-82825000D03*
X74515000Y-80625000D03*
%TD*%
D34*
%TO.C,R312*%
X46135000Y-92010000D03*
X45115000Y-92010000D03*
%TD*%
D18*
%TO.C,R303*%
X33550000Y-22550000D03*
X33550000Y-21530000D03*
%TD*%
%TO.C,R303*%
X75550000Y-69550000D03*
X75550000Y-68530000D03*
%TD*%
D32*
%TO.C,D204*%
X58400000Y-38832500D03*
X58400000Y-40407500D03*
%TD*%
D12*
%TO.C,D301*%
X47505000Y-97457500D03*
X47505000Y-95882500D03*
%TD*%
D29*
%TO.C,U501*%
X98755000Y-75980000D03*
X97485000Y-75980000D03*
X96215000Y-75980000D03*
X94945000Y-75980000D03*
X94945000Y-80920000D03*
X96215000Y-80920000D03*
X97485000Y-80920000D03*
X98755000Y-80920000D03*
%TD*%
D24*
%TO.C,C403*%
X74790000Y-51525000D03*
X74790000Y-50565000D03*
%TD*%
D27*
%TO.C,R402*%
X80530000Y-53590000D03*
X80530000Y-54610000D03*
%TD*%
%TO.C,R311*%
X41845000Y-26645000D03*
X41845000Y-27665000D03*
%TD*%
D24*
%TO.C,C309*%
X78920000Y-78785000D03*
X78920000Y-77825000D03*
%TD*%
D18*
%TO.C,R317*%
X72290000Y-77220000D03*
X72290000Y-76200000D03*
%TD*%
D24*
%TO.C,C311*%
X76640000Y-86230000D03*
X76640000Y-85270000D03*
%TD*%
%TO.C,C312*%
X54800000Y-95330000D03*
X54800000Y-94370000D03*
%TD*%
%TO.C,C311*%
X34640000Y-39230000D03*
X34640000Y-38270000D03*
%TD*%
D28*
%TO.C,D304*%
X91025000Y-69785000D03*
X91025000Y-70755000D03*
%TD*%
D21*
%TO.C,C308*%
X82325000Y-44260000D03*
X81365000Y-44260000D03*
%TD*%
D23*
%TO.C,D503*%
X101615000Y-78415000D03*
X102585000Y-78415000D03*
%TD*%
D27*
%TO.C,R402*%
X80530000Y-100590000D03*
X80530000Y-101610000D03*
%TD*%
D24*
%TO.C,C312*%
X96800000Y-48330000D03*
X96800000Y-47370000D03*
%TD*%
D18*
%TO.C,R502*%
X58230000Y-78290000D03*
X58230000Y-77270000D03*
%TD*%
D34*
%TO.C,R312*%
X46135000Y-45010000D03*
X45115000Y-45010000D03*
%TD*%
D11*
%TO.C,D502*%
X101550000Y-30265000D03*
X101550000Y-29295000D03*
%TD*%
D41*
%TO.C,J302*%
X91225000Y-52395000D03*
X92025000Y-52395000D03*
D42*
X93175000Y-52395000D03*
X94175000Y-52395000D03*
X94675000Y-52395000D03*
X95675000Y-52395000D03*
D41*
X97625000Y-52395000D03*
X96825000Y-52395000D03*
D42*
X96175000Y-52395000D03*
X95175000Y-52395000D03*
X93675000Y-52395000D03*
X92675000Y-52395000D03*
D43*
X89315000Y-52970000D03*
X99535000Y-52970000D03*
X89315000Y-56900000D03*
X99535000Y-56900000D03*
%TD*%
D39*
%TO.C,SW301*%
X79950000Y-64045000D03*
X72650000Y-66255000D03*
X79950000Y-66255000D03*
X72650000Y-64045000D03*
D40*
X78550000Y-66905000D03*
X75550000Y-66905000D03*
X74050000Y-66905000D03*
%TD*%
D27*
%TO.C,R401*%
X81800000Y-53640000D03*
X81800000Y-54660000D03*
%TD*%
D28*
%TO.C,D305*%
X92225000Y-22790000D03*
X92225000Y-23760000D03*
%TD*%
D18*
%TO.C,R307*%
X38065000Y-51830000D03*
X38065000Y-50810000D03*
%TD*%
D13*
%TO.C,C306*%
X92255000Y-78765000D03*
X92255000Y-77215000D03*
%TD*%
D31*
%TO.C,C310*%
X38370000Y-76350000D03*
X39330000Y-76350000D03*
%TD*%
D27*
%TO.C,R301*%
X38095000Y-95770000D03*
X38095000Y-96790000D03*
%TD*%
D34*
%TO.C,R309*%
X85795000Y-75705000D03*
X84775000Y-75705000D03*
%TD*%
D31*
%TO.C,C401*%
X32385000Y-49245000D03*
X33345000Y-49245000D03*
%TD*%
D18*
%TO.C,R315*%
X89930000Y-23805000D03*
X89930000Y-22785000D03*
%TD*%
%TO.C,R316*%
X45600000Y-70770000D03*
X45600000Y-69750000D03*
%TD*%
D29*
%TO.C,U501*%
X56755000Y-75980000D03*
X55485000Y-75980000D03*
X54215000Y-75980000D03*
X52945000Y-75980000D03*
X52945000Y-80920000D03*
X54215000Y-80920000D03*
X55485000Y-80920000D03*
X56755000Y-80920000D03*
%TD*%
D27*
%TO.C,R311*%
X41845000Y-73645000D03*
X41845000Y-74665000D03*
%TD*%
D23*
%TO.C,D503*%
X59615000Y-31415000D03*
X60585000Y-31415000D03*
%TD*%
D12*
%TO.C,D301*%
X47505000Y-50457500D03*
X47505000Y-48882500D03*
%TD*%
D27*
%TO.C,R308*%
X50200000Y-88715000D03*
X50200000Y-89735000D03*
%TD*%
D32*
%TO.C,D204*%
X58400000Y-85832500D03*
X58400000Y-87407500D03*
%TD*%
D18*
%TO.C,R314*%
X51305000Y-70865000D03*
X51305000Y-69845000D03*
%TD*%
D16*
%TO.C,C303*%
X100885000Y-42440000D03*
X99335000Y-42440000D03*
%TD*%
M02*
