%TF.GenerationSoftware,KiCad,Pcbnew,(6.0.11)*%
%TF.CreationDate,2023-02-14T10:47:04+13:00*%
%TF.ProjectId,stm32_panel,73746d33-325f-4706-916e-656c2e6b6963,rev?*%
%TF.SameCoordinates,Original*%
%TF.FileFunction,Copper,L3,Inr*%
%TF.FilePolarity,Positive*%
%FSLAX46Y46*%
G04 Gerber Fmt 4.6, Leading zero omitted, Abs format (unit mm)*
G04 Created by KiCad (PCBNEW (6.0.11)) date 2023-02-14 10:47:04*
%MOMM*%
%LPD*%
G01*
G04 APERTURE LIST*
%TA.AperFunction,ComponentPad*%
%ADD10R,1.700000X1.700000*%
%TD*%
%TA.AperFunction,ComponentPad*%
%ADD11O,1.700000X1.700000*%
%TD*%
%TA.AperFunction,ComponentPad*%
%ADD12R,1.000000X1.000000*%
%TD*%
%TA.AperFunction,ComponentPad*%
%ADD13O,1.000000X1.000000*%
%TD*%
%TA.AperFunction,ComponentPad*%
%ADD14C,0.800000*%
%TD*%
%TA.AperFunction,ComponentPad*%
%ADD15C,6.400000*%
%TD*%
%TA.AperFunction,ViaPad*%
%ADD16C,0.800000*%
%TD*%
%TA.AperFunction,Conductor*%
%ADD17C,0.500000*%
%TD*%
G04 APERTURE END LIST*
D10*
%TO.N,Board_1-+5V*%
%TO.C,J503*%
X103740000Y-34890000D03*
D11*
%TO.N,Board_1-+3V3*%
X103740000Y-37430000D03*
%TO.N,Board_1-GND*%
X103740000Y-39970000D03*
%TO.N,Board_1-MCU_CAN2H*%
X103740000Y-42510000D03*
%TO.N,Board_1-MCU_CAN2L*%
X103740000Y-45050000D03*
%TO.N,Board_1-MCU_UART4_TX*%
X103740000Y-47590000D03*
%TO.N,Board_1-MCU_UART4_RX*%
X103740000Y-50130000D03*
%TO.N,Board_1-MCU_USART3_TX*%
X103740000Y-52670000D03*
%TO.N,Board_1-MCU_USART3_RX*%
X103740000Y-55210000D03*
%TO.N,Board_1-SHIELD_STAT_LED*%
X103740000Y-57750000D03*
%TD*%
D12*
%TO.N,Board_3-+3V3*%
%TO.C,J301*%
X92300000Y-65800000D03*
D13*
%TO.N,Board_3-/Microcontroller/CONN_SWDIO*%
X92300000Y-67070000D03*
%TO.N,Board_3-GND*%
X91030000Y-65800000D03*
%TO.N,Board_3-/Microcontroller/CONN_SWCLK*%
X91030000Y-67070000D03*
%TO.N,Board_3-GND*%
X89760000Y-65800000D03*
%TO.N,Board_3-/Microcontroller/CONN_SWO*%
X89760000Y-67070000D03*
%TO.N,Board_3-unconnected-(J301-Pad7)*%
X88490000Y-65800000D03*
%TO.N,Board_3-unconnected-(J301-Pad8)*%
X88490000Y-67070000D03*
%TO.N,Board_3-GND*%
X87220000Y-65800000D03*
%TO.N,Board_3-unconnected-(J301-Pad10)*%
X87220000Y-67070000D03*
%TD*%
D14*
%TO.N,Board_2-GND*%
%TO.C,H502*%
X31400000Y-102000000D03*
X30697056Y-100302944D03*
X27302944Y-100302944D03*
X30697056Y-103697056D03*
X27302944Y-103697056D03*
X29000000Y-99600000D03*
D15*
X29000000Y-102000000D03*
D14*
X26600000Y-102000000D03*
X29000000Y-104400000D03*
%TD*%
D10*
%TO.N,Board_2-unconnected-(J505-Pad1)*%
%TO.C,J505*%
X26300000Y-64300000D03*
D11*
%TO.N,Board_2-+3V3*%
X26300000Y-66840000D03*
%TO.N,Board_2-unconnected-(J505-Pad3)*%
X26300000Y-69380000D03*
%TO.N,Board_2-MCU_CAN1_RX*%
X26300000Y-71920000D03*
%TO.N,Board_2-MCU_CAN1_TX*%
X26300000Y-74460000D03*
%TO.N,Board_2-MCU_I2C1_SCL*%
X26300000Y-77000000D03*
%TO.N,Board_2-MCU_I2C1_SDA*%
X26300000Y-79540000D03*
%TO.N,Board_2-MCU_SPI1_SCK*%
X26300000Y-82080000D03*
%TO.N,Board_2-MCU_SPI1_MISO*%
X26300000Y-84620000D03*
%TO.N,Board_2-MCU_SPI1_MOSI*%
X26300000Y-87160000D03*
%TO.N,Board_2-10*%
X26300000Y-89700000D03*
%TO.N,Board_2-11*%
X26300000Y-92240000D03*
%TO.N,Board_2-16*%
X26300000Y-94780000D03*
%TD*%
D10*
%TO.N,Board_3-unconnected-(J505-Pad1)*%
%TO.C,J505*%
X68300000Y-64300000D03*
D11*
%TO.N,Board_3-+3V3*%
X68300000Y-66840000D03*
%TO.N,Board_3-unconnected-(J505-Pad3)*%
X68300000Y-69380000D03*
%TO.N,Board_3-MCU_CAN1_RX*%
X68300000Y-71920000D03*
%TO.N,Board_3-MCU_CAN1_TX*%
X68300000Y-74460000D03*
%TO.N,Board_3-MCU_I2C1_SCL*%
X68300000Y-77000000D03*
%TO.N,Board_3-MCU_I2C1_SDA*%
X68300000Y-79540000D03*
%TO.N,Board_3-MCU_SPI1_SCK*%
X68300000Y-82080000D03*
%TO.N,Board_3-MCU_SPI1_MISO*%
X68300000Y-84620000D03*
%TO.N,Board_3-MCU_SPI1_MOSI*%
X68300000Y-87160000D03*
%TO.N,Board_3-10*%
X68300000Y-89700000D03*
%TO.N,Board_3-11*%
X68300000Y-92240000D03*
%TO.N,Board_3-16*%
X68300000Y-94780000D03*
%TD*%
D14*
%TO.N,Board_0-GND*%
%TO.C,H501*%
X59000000Y-22400000D03*
X61400000Y-20000000D03*
X60697056Y-21697056D03*
X56600000Y-20000000D03*
X57302944Y-18302944D03*
D15*
X59000000Y-20000000D03*
D14*
X57302944Y-21697056D03*
X60697056Y-18302944D03*
X59000000Y-17600000D03*
%TD*%
D15*
%TO.N,Board_0-GND*%
%TO.C,H502*%
X29000000Y-55000000D03*
D14*
X30697056Y-53302944D03*
X26600000Y-55000000D03*
X29000000Y-52600000D03*
X27302944Y-56697056D03*
X30697056Y-56697056D03*
X29000000Y-57400000D03*
X31400000Y-55000000D03*
X27302944Y-53302944D03*
%TD*%
D10*
%TO.N,Board_0-unconnected-(J505-Pad1)*%
%TO.C,J505*%
X26300000Y-17300000D03*
D11*
%TO.N,Board_0-+3V3*%
X26300000Y-19840000D03*
%TO.N,Board_0-unconnected-(J505-Pad3)*%
X26300000Y-22380000D03*
%TO.N,Board_0-MCU_CAN1_RX*%
X26300000Y-24920000D03*
%TO.N,Board_0-MCU_CAN1_TX*%
X26300000Y-27460000D03*
%TO.N,Board_0-MCU_I2C1_SCL*%
X26300000Y-30000000D03*
%TO.N,Board_0-MCU_I2C1_SDA*%
X26300000Y-32540000D03*
%TO.N,Board_0-MCU_SPI1_SCK*%
X26300000Y-35080000D03*
%TO.N,Board_0-MCU_SPI1_MISO*%
X26300000Y-37620000D03*
%TO.N,Board_0-MCU_SPI1_MOSI*%
X26300000Y-40160000D03*
%TO.N,Board_0-10*%
X26300000Y-42700000D03*
%TO.N,Board_0-11*%
X26300000Y-45240000D03*
%TO.N,Board_0-16*%
X26300000Y-47780000D03*
%TD*%
D10*
%TO.N,Board_0-+5V*%
%TO.C,J503*%
X61740000Y-34890000D03*
D11*
%TO.N,Board_0-+3V3*%
X61740000Y-37430000D03*
%TO.N,Board_0-GND*%
X61740000Y-39970000D03*
%TO.N,Board_0-MCU_CAN2H*%
X61740000Y-42510000D03*
%TO.N,Board_0-MCU_CAN2L*%
X61740000Y-45050000D03*
%TO.N,Board_0-MCU_UART4_TX*%
X61740000Y-47590000D03*
%TO.N,Board_0-MCU_UART4_RX*%
X61740000Y-50130000D03*
%TO.N,Board_0-MCU_USART3_TX*%
X61740000Y-52670000D03*
%TO.N,Board_0-MCU_USART3_RX*%
X61740000Y-55210000D03*
%TO.N,Board_0-SHIELD_STAT_LED*%
X61740000Y-57750000D03*
%TD*%
D14*
%TO.N,Board_2-GND*%
%TO.C,H501*%
X57302944Y-68697056D03*
X60697056Y-68697056D03*
X59000000Y-69400000D03*
X57302944Y-65302944D03*
X60697056Y-65302944D03*
X61400000Y-67000000D03*
X59000000Y-64600000D03*
D15*
X59000000Y-67000000D03*
D14*
X56600000Y-67000000D03*
%TD*%
D10*
%TO.N,Board_1-unconnected-(J505-Pad1)*%
%TO.C,J505*%
X68300000Y-17300000D03*
D11*
%TO.N,Board_1-+3V3*%
X68300000Y-19840000D03*
%TO.N,Board_1-unconnected-(J505-Pad3)*%
X68300000Y-22380000D03*
%TO.N,Board_1-MCU_CAN1_RX*%
X68300000Y-24920000D03*
%TO.N,Board_1-MCU_CAN1_TX*%
X68300000Y-27460000D03*
%TO.N,Board_1-MCU_I2C1_SCL*%
X68300000Y-30000000D03*
%TO.N,Board_1-MCU_I2C1_SDA*%
X68300000Y-32540000D03*
%TO.N,Board_1-MCU_SPI1_SCK*%
X68300000Y-35080000D03*
%TO.N,Board_1-MCU_SPI1_MISO*%
X68300000Y-37620000D03*
%TO.N,Board_1-MCU_SPI1_MOSI*%
X68300000Y-40160000D03*
%TO.N,Board_1-10*%
X68300000Y-42700000D03*
%TO.N,Board_1-11*%
X68300000Y-45240000D03*
%TO.N,Board_1-16*%
X68300000Y-47780000D03*
%TD*%
D12*
%TO.N,Board_2-+3V3*%
%TO.C,J301*%
X50300000Y-65800000D03*
D13*
%TO.N,Board_2-/Microcontroller/CONN_SWDIO*%
X50300000Y-67070000D03*
%TO.N,Board_2-GND*%
X49030000Y-65800000D03*
%TO.N,Board_2-/Microcontroller/CONN_SWCLK*%
X49030000Y-67070000D03*
%TO.N,Board_2-GND*%
X47760000Y-65800000D03*
%TO.N,Board_2-/Microcontroller/CONN_SWO*%
X47760000Y-67070000D03*
%TO.N,Board_2-unconnected-(J301-Pad7)*%
X46490000Y-65800000D03*
%TO.N,Board_2-unconnected-(J301-Pad8)*%
X46490000Y-67070000D03*
%TO.N,Board_2-GND*%
X45220000Y-65800000D03*
%TO.N,Board_2-unconnected-(J301-Pad10)*%
X45220000Y-67070000D03*
%TD*%
D10*
%TO.N,Board_2-+5V*%
%TO.C,J503*%
X61740000Y-81890000D03*
D11*
%TO.N,Board_2-+3V3*%
X61740000Y-84430000D03*
%TO.N,Board_2-GND*%
X61740000Y-86970000D03*
%TO.N,Board_2-MCU_CAN2H*%
X61740000Y-89510000D03*
%TO.N,Board_2-MCU_CAN2L*%
X61740000Y-92050000D03*
%TO.N,Board_2-MCU_UART4_TX*%
X61740000Y-94590000D03*
%TO.N,Board_2-MCU_UART4_RX*%
X61740000Y-97130000D03*
%TO.N,Board_2-MCU_USART3_TX*%
X61740000Y-99670000D03*
%TO.N,Board_2-MCU_USART3_RX*%
X61740000Y-102210000D03*
%TO.N,Board_2-SHIELD_STAT_LED*%
X61740000Y-104750000D03*
%TD*%
D14*
%TO.N,Board_1-GND*%
%TO.C,H501*%
X102697056Y-18302944D03*
D15*
X101000000Y-20000000D03*
D14*
X99302944Y-18302944D03*
X101000000Y-17600000D03*
X101000000Y-22400000D03*
X99302944Y-21697056D03*
X103400000Y-20000000D03*
X102697056Y-21697056D03*
X98600000Y-20000000D03*
%TD*%
%TO.N,Board_3-GND*%
%TO.C,H502*%
X69302944Y-100302944D03*
X71000000Y-99600000D03*
D15*
X71000000Y-102000000D03*
D14*
X72697056Y-103697056D03*
X72697056Y-100302944D03*
X68600000Y-102000000D03*
X73400000Y-102000000D03*
X71000000Y-104400000D03*
X69302944Y-103697056D03*
%TD*%
D12*
%TO.N,Board_0-+3V3*%
%TO.C,J301*%
X50300000Y-18800000D03*
D13*
%TO.N,Board_0-/Microcontroller/CONN_SWDIO*%
X50300000Y-20070000D03*
%TO.N,Board_0-GND*%
X49030000Y-18800000D03*
%TO.N,Board_0-/Microcontroller/CONN_SWCLK*%
X49030000Y-20070000D03*
%TO.N,Board_0-GND*%
X47760000Y-18800000D03*
%TO.N,Board_0-/Microcontroller/CONN_SWO*%
X47760000Y-20070000D03*
%TO.N,Board_0-unconnected-(J301-Pad7)*%
X46490000Y-18800000D03*
%TO.N,Board_0-unconnected-(J301-Pad8)*%
X46490000Y-20070000D03*
%TO.N,Board_0-GND*%
X45220000Y-18800000D03*
%TO.N,Board_0-unconnected-(J301-Pad10)*%
X45220000Y-20070000D03*
%TD*%
D14*
%TO.N,Board_1-GND*%
%TO.C,H502*%
X71000000Y-57400000D03*
X69302944Y-53302944D03*
D15*
X71000000Y-55000000D03*
D14*
X73400000Y-55000000D03*
X71000000Y-52600000D03*
X69302944Y-56697056D03*
X68600000Y-55000000D03*
X72697056Y-53302944D03*
X72697056Y-56697056D03*
%TD*%
D10*
%TO.N,Board_3-+5V*%
%TO.C,J503*%
X103740000Y-81890000D03*
D11*
%TO.N,Board_3-+3V3*%
X103740000Y-84430000D03*
%TO.N,Board_3-GND*%
X103740000Y-86970000D03*
%TO.N,Board_3-MCU_CAN2H*%
X103740000Y-89510000D03*
%TO.N,Board_3-MCU_CAN2L*%
X103740000Y-92050000D03*
%TO.N,Board_3-MCU_UART4_TX*%
X103740000Y-94590000D03*
%TO.N,Board_3-MCU_UART4_RX*%
X103740000Y-97130000D03*
%TO.N,Board_3-MCU_USART3_TX*%
X103740000Y-99670000D03*
%TO.N,Board_3-MCU_USART3_RX*%
X103740000Y-102210000D03*
%TO.N,Board_3-SHIELD_STAT_LED*%
X103740000Y-104750000D03*
%TD*%
D14*
%TO.N,Board_3-GND*%
%TO.C,H501*%
X101000000Y-64600000D03*
X99302944Y-65302944D03*
X101000000Y-69400000D03*
X99302944Y-68697056D03*
X98600000Y-67000000D03*
X102697056Y-68697056D03*
X103400000Y-67000000D03*
D15*
X101000000Y-67000000D03*
D14*
X102697056Y-65302944D03*
%TD*%
D12*
%TO.N,Board_1-+3V3*%
%TO.C,J301*%
X92300000Y-18800000D03*
D13*
%TO.N,Board_1-/Microcontroller/CONN_SWDIO*%
X92300000Y-20070000D03*
%TO.N,Board_1-GND*%
X91030000Y-18800000D03*
%TO.N,Board_1-/Microcontroller/CONN_SWCLK*%
X91030000Y-20070000D03*
%TO.N,Board_1-GND*%
X89760000Y-18800000D03*
%TO.N,Board_1-/Microcontroller/CONN_SWO*%
X89760000Y-20070000D03*
%TO.N,Board_1-unconnected-(J301-Pad7)*%
X88490000Y-18800000D03*
%TO.N,Board_1-unconnected-(J301-Pad8)*%
X88490000Y-20070000D03*
%TO.N,Board_1-GND*%
X87220000Y-18800000D03*
%TO.N,Board_1-unconnected-(J301-Pad10)*%
X87220000Y-20070000D03*
%TD*%
D16*
%TO.N,Board_0-+3V3*%
X41490000Y-25630000D03*
X34150000Y-23620000D03*
X29925000Y-50300000D03*
X37125000Y-48075000D03*
X46660000Y-40220000D03*
X34070000Y-40200000D03*
X41200000Y-48950000D03*
X36340000Y-28540000D03*
X30625000Y-38325000D03*
X47373500Y-33550000D03*
X42300000Y-52600000D03*
%TO.N,Board_0-/Microcontroller/MCU_BOOT0*%
X44145000Y-25420000D03*
X41270000Y-32380000D03*
%TO.N,Board_0-/Microcontroller/MCU_BOOT1*%
X46076815Y-41165000D03*
X47423185Y-41035000D03*
%TO.N,Board_0-/Microcontroller/MCU_LED_A*%
X47000000Y-39000000D03*
X51138986Y-42571014D03*
%TO.N,Board_0-10*%
X35800000Y-37875000D03*
%TO.N,Board_0-11*%
X38860000Y-38225000D03*
%TO.N,Board_0-16*%
X38590000Y-40800000D03*
%TO.N,Board_0-GND*%
X36075000Y-30725000D03*
X35400000Y-55850000D03*
X33516812Y-32075009D03*
X34216812Y-32975009D03*
X29316812Y-33085009D03*
X38385500Y-44240000D03*
X57580000Y-27260000D03*
X34500000Y-37525000D03*
X32316812Y-32075009D03*
X30116812Y-37475009D03*
X33516812Y-37475009D03*
X49100000Y-51200000D03*
X48815000Y-41740000D03*
X31607459Y-49609331D03*
X57600000Y-50800000D03*
X50900000Y-48350000D03*
X29975000Y-32125000D03*
X37283018Y-49115894D03*
X29316812Y-36685009D03*
X49945000Y-47990000D03*
X53410000Y-23850000D03*
X55705000Y-38580000D03*
X32516812Y-37475009D03*
X56400000Y-42400000D03*
X31161509Y-28741509D03*
X48925000Y-29955000D03*
X33775000Y-50745000D03*
X31316812Y-37475009D03*
X49620000Y-24780000D03*
X46273185Y-24625000D03*
X31116812Y-32075009D03*
X29316812Y-35485009D03*
X36550000Y-21465000D03*
X54700000Y-49350000D03*
X29316812Y-34285009D03*
X50175000Y-43600000D03*
X59260000Y-32810000D03*
X33525000Y-48230000D03*
X39095500Y-29838454D03*
%TO.N,Board_0-MCU_CAN2H*%
X60865109Y-29206595D03*
%TO.N,Board_0-MCU_CAN2L*%
X60513986Y-30063986D03*
%TO.N,Board_0-MCU_CAN2_RX*%
X52050000Y-35120000D03*
X51523499Y-38270000D03*
%TO.N,Board_0-MCU_CAN2_TX*%
X52810000Y-35950000D03*
X51523499Y-37210000D03*
%TO.N,Board_0-MCU_I2C1_SCL*%
X42415589Y-25588863D03*
%TO.N,Board_0-MCU_I2C1_SDA*%
X40335931Y-25685931D03*
%TO.N,Board_0-MCU_I2C3_SCL*%
X43000000Y-36200000D03*
X40464388Y-47890882D03*
%TO.N,Board_0-MCU_I2C3_SDA*%
X39040000Y-47912980D03*
X41000000Y-37400000D03*
%TO.N,Board_0-MCU_UART4_RX*%
X43800000Y-39443500D03*
X54050000Y-45815000D03*
%TO.N,Board_0-MCU_UART4_TX*%
X53448986Y-44881014D03*
X44800000Y-38400000D03*
%TO.N,Board_0-MCU_USART3_RX*%
X45250000Y-32600000D03*
%TO.N,Board_0-MCU_USART3_TX*%
X46060202Y-29874556D03*
%TO.N,Board_0-SHIELD_STAT_LED*%
X55474683Y-46382489D03*
X50000000Y-39200000D03*
%TO.N,Board_0-VBUS*%
X56100000Y-51300000D03*
X50050000Y-51200000D03*
X55800000Y-47250000D03*
%TO.N,Board_1-+3V3*%
X83490000Y-25630000D03*
X76150000Y-23620000D03*
X71925000Y-50300000D03*
X79125000Y-48075000D03*
X88660000Y-40220000D03*
X76070000Y-40200000D03*
X83200000Y-48950000D03*
X78340000Y-28540000D03*
X72625000Y-38325000D03*
X89373500Y-33550000D03*
X84300000Y-52600000D03*
%TO.N,Board_1-/Microcontroller/MCU_BOOT0*%
X86145000Y-25420000D03*
X83270000Y-32380000D03*
%TO.N,Board_1-/Microcontroller/MCU_BOOT1*%
X88076815Y-41165000D03*
X89423185Y-41035000D03*
%TO.N,Board_1-/Microcontroller/MCU_LED_A*%
X89000000Y-39000000D03*
X93138986Y-42571014D03*
%TO.N,Board_1-10*%
X77800000Y-37875000D03*
%TO.N,Board_1-11*%
X80860000Y-38225000D03*
%TO.N,Board_1-16*%
X80590000Y-40800000D03*
%TO.N,Board_1-GND*%
X78075000Y-30725000D03*
X77400000Y-55850000D03*
X75516812Y-32075009D03*
X76216812Y-32975009D03*
X71316812Y-33085009D03*
X80385500Y-44240000D03*
X99580000Y-27260000D03*
X76500000Y-37525000D03*
X74316812Y-32075009D03*
X72116812Y-37475009D03*
X75516812Y-37475009D03*
X91100000Y-51200000D03*
X90815000Y-41740000D03*
X73607459Y-49609331D03*
X99600000Y-50800000D03*
X92900000Y-48350000D03*
X71975000Y-32125000D03*
X79283018Y-49115894D03*
X71316812Y-36685009D03*
X91945000Y-47990000D03*
X95410000Y-23850000D03*
X97705000Y-38580000D03*
X74516812Y-37475009D03*
X98400000Y-42400000D03*
X73161509Y-28741509D03*
X90925000Y-29955000D03*
X75775000Y-50745000D03*
X73316812Y-37475009D03*
X91620000Y-24780000D03*
X88273185Y-24625000D03*
X73116812Y-32075009D03*
X71316812Y-35485009D03*
X78550000Y-21465000D03*
X96700000Y-49350000D03*
X71316812Y-34285009D03*
X92175000Y-43600000D03*
X101260000Y-32810000D03*
X75525000Y-48230000D03*
X81095500Y-29838454D03*
%TO.N,Board_1-MCU_CAN2H*%
X102865109Y-29206595D03*
%TO.N,Board_1-MCU_CAN2L*%
X102513986Y-30063986D03*
%TO.N,Board_1-MCU_CAN2_RX*%
X94050000Y-35120000D03*
X93523499Y-38270000D03*
%TO.N,Board_1-MCU_CAN2_TX*%
X94810000Y-35950000D03*
X93523499Y-37210000D03*
%TO.N,Board_1-MCU_I2C1_SCL*%
X84415589Y-25588863D03*
%TO.N,Board_1-MCU_I2C1_SDA*%
X82335931Y-25685931D03*
%TO.N,Board_1-MCU_I2C3_SCL*%
X85000000Y-36200000D03*
X82464388Y-47890882D03*
%TO.N,Board_1-MCU_I2C3_SDA*%
X81040000Y-47912980D03*
X83000000Y-37400000D03*
%TO.N,Board_1-MCU_UART4_RX*%
X85800000Y-39443500D03*
X96050000Y-45815000D03*
%TO.N,Board_1-MCU_UART4_TX*%
X95448986Y-44881014D03*
X86800000Y-38400000D03*
%TO.N,Board_1-MCU_USART3_RX*%
X87250000Y-32600000D03*
%TO.N,Board_1-MCU_USART3_TX*%
X88060202Y-29874556D03*
%TO.N,Board_1-SHIELD_STAT_LED*%
X97474683Y-46382489D03*
X92000000Y-39200000D03*
%TO.N,Board_1-VBUS*%
X98100000Y-51300000D03*
X92050000Y-51200000D03*
X97800000Y-47250000D03*
%TO.N,Board_2-+3V3*%
X41490000Y-72630000D03*
X34150000Y-70620000D03*
X29925000Y-97300000D03*
X37125000Y-95075000D03*
X46660000Y-87220000D03*
X34070000Y-87200000D03*
X41200000Y-95950000D03*
X36340000Y-75540000D03*
X30625000Y-85325000D03*
X47373500Y-80550000D03*
X42300000Y-99600000D03*
%TO.N,Board_2-/Microcontroller/MCU_BOOT0*%
X44145000Y-72420000D03*
X41270000Y-79380000D03*
%TO.N,Board_2-/Microcontroller/MCU_BOOT1*%
X46076815Y-88165000D03*
X47423185Y-88035000D03*
%TO.N,Board_2-/Microcontroller/MCU_LED_A*%
X47000000Y-86000000D03*
X51138986Y-89571014D03*
%TO.N,Board_2-10*%
X35800000Y-84875000D03*
%TO.N,Board_2-11*%
X38860000Y-85225000D03*
%TO.N,Board_2-16*%
X38590000Y-87800000D03*
%TO.N,Board_2-GND*%
X36075000Y-77725000D03*
X35400000Y-102850000D03*
X33516812Y-79075009D03*
X34216812Y-79975009D03*
X29316812Y-80085009D03*
X38385500Y-91240000D03*
X57580000Y-74260000D03*
X34500000Y-84525000D03*
X32316812Y-79075009D03*
X30116812Y-84475009D03*
X33516812Y-84475009D03*
X49100000Y-98200000D03*
X48815000Y-88740000D03*
X31607459Y-96609331D03*
X57600000Y-97800000D03*
X50900000Y-95350000D03*
X29975000Y-79125000D03*
X37283018Y-96115894D03*
X29316812Y-83685009D03*
X49945000Y-94990000D03*
X53410000Y-70850000D03*
X55705000Y-85580000D03*
X32516812Y-84475009D03*
X56400000Y-89400000D03*
X31161509Y-75741509D03*
X48925000Y-76955000D03*
X33775000Y-97745000D03*
X31316812Y-84475009D03*
X49620000Y-71780000D03*
X46273185Y-71625000D03*
X31116812Y-79075009D03*
X29316812Y-82485009D03*
X36550000Y-68465000D03*
X54700000Y-96350000D03*
X29316812Y-81285009D03*
X50175000Y-90600000D03*
X59260000Y-79810000D03*
X33525000Y-95230000D03*
X39095500Y-76838454D03*
%TO.N,Board_2-MCU_CAN2H*%
X60865109Y-76206595D03*
%TO.N,Board_2-MCU_CAN2L*%
X60513986Y-77063986D03*
%TO.N,Board_2-MCU_CAN2_RX*%
X52050000Y-82120000D03*
X51523499Y-85270000D03*
%TO.N,Board_2-MCU_CAN2_TX*%
X52810000Y-82950000D03*
X51523499Y-84210000D03*
%TO.N,Board_2-MCU_I2C1_SCL*%
X42415589Y-72588863D03*
%TO.N,Board_2-MCU_I2C1_SDA*%
X40335931Y-72685931D03*
%TO.N,Board_2-MCU_I2C3_SCL*%
X43000000Y-83200000D03*
X40464388Y-94890882D03*
%TO.N,Board_2-MCU_I2C3_SDA*%
X39040000Y-94912980D03*
X41000000Y-84400000D03*
%TO.N,Board_2-MCU_UART4_RX*%
X43800000Y-86443500D03*
X54050000Y-92815000D03*
%TO.N,Board_2-MCU_UART4_TX*%
X53448986Y-91881014D03*
X44800000Y-85400000D03*
%TO.N,Board_2-MCU_USART3_RX*%
X45250000Y-79600000D03*
%TO.N,Board_2-MCU_USART3_TX*%
X46060202Y-76874556D03*
%TO.N,Board_2-SHIELD_STAT_LED*%
X55474683Y-93382489D03*
X50000000Y-86200000D03*
%TO.N,Board_2-VBUS*%
X56100000Y-98300000D03*
X50050000Y-98200000D03*
X55800000Y-94250000D03*
%TO.N,Board_3-+3V3*%
X83490000Y-72630000D03*
X76150000Y-70620000D03*
X71925000Y-97300000D03*
X79125000Y-95075000D03*
X88660000Y-87220000D03*
X76070000Y-87200000D03*
X83200000Y-95950000D03*
X78340000Y-75540000D03*
X72625000Y-85325000D03*
X89373500Y-80550000D03*
X84300000Y-99600000D03*
%TO.N,Board_3-/Microcontroller/MCU_BOOT0*%
X86145000Y-72420000D03*
X83270000Y-79380000D03*
%TO.N,Board_3-/Microcontroller/MCU_BOOT1*%
X88076815Y-88165000D03*
X89423185Y-88035000D03*
%TO.N,Board_3-/Microcontroller/MCU_LED_A*%
X89000000Y-86000000D03*
X93138986Y-89571014D03*
%TO.N,Board_3-10*%
X77800000Y-84875000D03*
%TO.N,Board_3-11*%
X80860000Y-85225000D03*
%TO.N,Board_3-16*%
X80590000Y-87800000D03*
%TO.N,Board_3-GND*%
X78075000Y-77725000D03*
X77400000Y-102850000D03*
X75516812Y-79075009D03*
X76216812Y-79975009D03*
X71316812Y-80085009D03*
X80385500Y-91240000D03*
X99580000Y-74260000D03*
X76500000Y-84525000D03*
X74316812Y-79075009D03*
X72116812Y-84475009D03*
X75516812Y-84475009D03*
X91100000Y-98200000D03*
X90815000Y-88740000D03*
X73607459Y-96609331D03*
X99600000Y-97800000D03*
X92900000Y-95350000D03*
X71975000Y-79125000D03*
X79283018Y-96115894D03*
X71316812Y-83685009D03*
X91945000Y-94990000D03*
X95410000Y-70850000D03*
X97705000Y-85580000D03*
X74516812Y-84475009D03*
X98400000Y-89400000D03*
X73161509Y-75741509D03*
X90925000Y-76955000D03*
X75775000Y-97745000D03*
X73316812Y-84475009D03*
X91620000Y-71780000D03*
X88273185Y-71625000D03*
X73116812Y-79075009D03*
X71316812Y-82485009D03*
X78550000Y-68465000D03*
X96700000Y-96350000D03*
X71316812Y-81285009D03*
X92175000Y-90600000D03*
X101260000Y-79810000D03*
X75525000Y-95230000D03*
X81095500Y-76838454D03*
%TO.N,Board_3-MCU_CAN2H*%
X102865109Y-76206595D03*
%TO.N,Board_3-MCU_CAN2L*%
X102513986Y-77063986D03*
%TO.N,Board_3-MCU_CAN2_RX*%
X94050000Y-82120000D03*
X93523499Y-85270000D03*
%TO.N,Board_3-MCU_CAN2_TX*%
X94810000Y-82950000D03*
X93523499Y-84210000D03*
%TO.N,Board_3-MCU_I2C1_SCL*%
X84415589Y-72588863D03*
%TO.N,Board_3-MCU_I2C1_SDA*%
X82335931Y-72685931D03*
%TO.N,Board_3-MCU_I2C3_SCL*%
X85000000Y-83200000D03*
X82464388Y-94890882D03*
%TO.N,Board_3-MCU_I2C3_SDA*%
X81040000Y-94912980D03*
X83000000Y-84400000D03*
%TO.N,Board_3-MCU_UART4_RX*%
X85800000Y-86443500D03*
X96050000Y-92815000D03*
%TO.N,Board_3-MCU_UART4_TX*%
X95448986Y-91881014D03*
X86800000Y-85400000D03*
%TO.N,Board_3-MCU_USART3_RX*%
X87250000Y-79600000D03*
%TO.N,Board_3-MCU_USART3_TX*%
X88060202Y-76874556D03*
%TO.N,Board_3-SHIELD_STAT_LED*%
X97474683Y-93382489D03*
X92000000Y-86200000D03*
%TO.N,Board_3-VBUS*%
X98100000Y-98300000D03*
X92050000Y-98200000D03*
X97800000Y-94250000D03*
%TD*%
D17*
%TO.N,Board_0-+3V3*%
X29925000Y-44355000D02*
X29925000Y-50300000D01*
X34080000Y-40210000D02*
X34080000Y-45030000D01*
X39659156Y-26962000D02*
X40158000Y-26962000D01*
X46660000Y-40220000D02*
X40740000Y-40220000D01*
X34070000Y-40210000D02*
X29925000Y-44355000D01*
X41241388Y-44901583D02*
X41241388Y-48908612D01*
X34080000Y-45030000D02*
X37125000Y-48075000D01*
X28539812Y-37006853D02*
X29857959Y-38325000D01*
X38071156Y-28550000D02*
X39659156Y-26962000D01*
X36340000Y-28540000D02*
X36350000Y-28550000D01*
X48962343Y-33550000D02*
X47373500Y-33550000D01*
X46660000Y-40220000D02*
X45922971Y-40220000D01*
X51443844Y-40210000D02*
X52842343Y-38811501D01*
X34070000Y-40200000D02*
X34070000Y-40210000D01*
X40123000Y-39603000D02*
X38688156Y-39603000D01*
X46670000Y-40210000D02*
X51443844Y-40210000D01*
X34150000Y-26350000D02*
X34150000Y-23620000D01*
X52842343Y-37430000D02*
X48962343Y-33550000D01*
X32661156Y-28340000D02*
X28539812Y-32461344D01*
X36340000Y-28540000D02*
X36140000Y-28340000D01*
X40740000Y-40220000D02*
X40123000Y-39603000D01*
X29857959Y-38325000D02*
X30625000Y-38325000D01*
X38101156Y-40190000D02*
X34080000Y-40190000D01*
X41200000Y-48950000D02*
X41200000Y-51500000D01*
X40158000Y-26962000D02*
X41490000Y-25630000D01*
X34080000Y-40190000D02*
X34070000Y-40200000D01*
X36350000Y-28550000D02*
X38071156Y-28550000D01*
X28539812Y-32461344D02*
X28539812Y-37006853D01*
X36140000Y-28340000D02*
X32661156Y-28340000D01*
X46660000Y-40220000D02*
X46670000Y-40210000D01*
X52842343Y-38811501D02*
X52842343Y-37430000D01*
X41200000Y-51500000D02*
X42300000Y-52600000D01*
X36340000Y-28540000D02*
X34150000Y-26350000D01*
X38688156Y-39603000D02*
X38101156Y-40190000D01*
X61740000Y-37430000D02*
X52842343Y-37430000D01*
X34070000Y-40200000D02*
X34080000Y-40210000D01*
X45922971Y-40220000D02*
X41241388Y-44901583D01*
X41241388Y-48908612D02*
X41200000Y-48950000D01*
%TO.N,Board_1-+3V3*%
X71925000Y-44355000D02*
X71925000Y-50300000D01*
X76080000Y-40210000D02*
X76080000Y-45030000D01*
X81659156Y-26962000D02*
X82158000Y-26962000D01*
X88660000Y-40220000D02*
X82740000Y-40220000D01*
X76070000Y-40210000D02*
X71925000Y-44355000D01*
X83241388Y-44901583D02*
X83241388Y-48908612D01*
X76080000Y-45030000D02*
X79125000Y-48075000D01*
X70539812Y-37006853D02*
X71857959Y-38325000D01*
X80071156Y-28550000D02*
X81659156Y-26962000D01*
X78340000Y-28540000D02*
X78350000Y-28550000D01*
X90962343Y-33550000D02*
X89373500Y-33550000D01*
X88660000Y-40220000D02*
X87922971Y-40220000D01*
X93443844Y-40210000D02*
X94842343Y-38811501D01*
X76070000Y-40200000D02*
X76070000Y-40210000D01*
X82123000Y-39603000D02*
X80688156Y-39603000D01*
X88670000Y-40210000D02*
X93443844Y-40210000D01*
X76150000Y-26350000D02*
X76150000Y-23620000D01*
X94842343Y-37430000D02*
X90962343Y-33550000D01*
X74661156Y-28340000D02*
X70539812Y-32461344D01*
X78340000Y-28540000D02*
X78140000Y-28340000D01*
X82740000Y-40220000D02*
X82123000Y-39603000D01*
X71857959Y-38325000D02*
X72625000Y-38325000D01*
X80101156Y-40190000D02*
X76080000Y-40190000D01*
X83200000Y-48950000D02*
X83200000Y-51500000D01*
X82158000Y-26962000D02*
X83490000Y-25630000D01*
X76080000Y-40190000D02*
X76070000Y-40200000D01*
X78350000Y-28550000D02*
X80071156Y-28550000D01*
X70539812Y-32461344D02*
X70539812Y-37006853D01*
X78140000Y-28340000D02*
X74661156Y-28340000D01*
X88660000Y-40220000D02*
X88670000Y-40210000D01*
X94842343Y-38811501D02*
X94842343Y-37430000D01*
X83200000Y-51500000D02*
X84300000Y-52600000D01*
X78340000Y-28540000D02*
X76150000Y-26350000D01*
X80688156Y-39603000D02*
X80101156Y-40190000D01*
X103740000Y-37430000D02*
X94842343Y-37430000D01*
X76070000Y-40200000D02*
X76080000Y-40210000D01*
X87922971Y-40220000D02*
X83241388Y-44901583D01*
X83241388Y-48908612D02*
X83200000Y-48950000D01*
%TO.N,Board_2-+3V3*%
X29925000Y-91355000D02*
X29925000Y-97300000D01*
X34080000Y-87210000D02*
X34080000Y-92030000D01*
X39659156Y-73962000D02*
X40158000Y-73962000D01*
X46660000Y-87220000D02*
X40740000Y-87220000D01*
X34070000Y-87210000D02*
X29925000Y-91355000D01*
X41241388Y-91901583D02*
X41241388Y-95908612D01*
X34080000Y-92030000D02*
X37125000Y-95075000D01*
X28539812Y-84006853D02*
X29857959Y-85325000D01*
X38071156Y-75550000D02*
X39659156Y-73962000D01*
X36340000Y-75540000D02*
X36350000Y-75550000D01*
X48962343Y-80550000D02*
X47373500Y-80550000D01*
X46660000Y-87220000D02*
X45922971Y-87220000D01*
X51443844Y-87210000D02*
X52842343Y-85811501D01*
X34070000Y-87200000D02*
X34070000Y-87210000D01*
X40123000Y-86603000D02*
X38688156Y-86603000D01*
X46670000Y-87210000D02*
X51443844Y-87210000D01*
X34150000Y-73350000D02*
X34150000Y-70620000D01*
X52842343Y-84430000D02*
X48962343Y-80550000D01*
X32661156Y-75340000D02*
X28539812Y-79461344D01*
X36340000Y-75540000D02*
X36140000Y-75340000D01*
X40740000Y-87220000D02*
X40123000Y-86603000D01*
X29857959Y-85325000D02*
X30625000Y-85325000D01*
X38101156Y-87190000D02*
X34080000Y-87190000D01*
X41200000Y-95950000D02*
X41200000Y-98500000D01*
X40158000Y-73962000D02*
X41490000Y-72630000D01*
X34080000Y-87190000D02*
X34070000Y-87200000D01*
X36350000Y-75550000D02*
X38071156Y-75550000D01*
X28539812Y-79461344D02*
X28539812Y-84006853D01*
X36140000Y-75340000D02*
X32661156Y-75340000D01*
X46660000Y-87220000D02*
X46670000Y-87210000D01*
X52842343Y-85811501D02*
X52842343Y-84430000D01*
X41200000Y-98500000D02*
X42300000Y-99600000D01*
X36340000Y-75540000D02*
X34150000Y-73350000D01*
X38688156Y-86603000D02*
X38101156Y-87190000D01*
X61740000Y-84430000D02*
X52842343Y-84430000D01*
X34070000Y-87200000D02*
X34080000Y-87210000D01*
X45922971Y-87220000D02*
X41241388Y-91901583D01*
X41241388Y-95908612D02*
X41200000Y-95950000D01*
%TO.N,Board_3-+3V3*%
X71925000Y-91355000D02*
X71925000Y-97300000D01*
X76080000Y-87210000D02*
X76080000Y-92030000D01*
X81659156Y-73962000D02*
X82158000Y-73962000D01*
X88660000Y-87220000D02*
X82740000Y-87220000D01*
X76070000Y-87210000D02*
X71925000Y-91355000D01*
X83241388Y-91901583D02*
X83241388Y-95908612D01*
X76080000Y-92030000D02*
X79125000Y-95075000D01*
X70539812Y-84006853D02*
X71857959Y-85325000D01*
X80071156Y-75550000D02*
X81659156Y-73962000D01*
X78340000Y-75540000D02*
X78350000Y-75550000D01*
X90962343Y-80550000D02*
X89373500Y-80550000D01*
X88660000Y-87220000D02*
X87922971Y-87220000D01*
X93443844Y-87210000D02*
X94842343Y-85811501D01*
X76070000Y-87200000D02*
X76070000Y-87210000D01*
X82123000Y-86603000D02*
X80688156Y-86603000D01*
X88670000Y-87210000D02*
X93443844Y-87210000D01*
X76150000Y-73350000D02*
X76150000Y-70620000D01*
X94842343Y-84430000D02*
X90962343Y-80550000D01*
X74661156Y-75340000D02*
X70539812Y-79461344D01*
X78340000Y-75540000D02*
X78140000Y-75340000D01*
X82740000Y-87220000D02*
X82123000Y-86603000D01*
X71857959Y-85325000D02*
X72625000Y-85325000D01*
X80101156Y-87190000D02*
X76080000Y-87190000D01*
X83200000Y-95950000D02*
X83200000Y-98500000D01*
X82158000Y-73962000D02*
X83490000Y-72630000D01*
X76080000Y-87190000D02*
X76070000Y-87200000D01*
X78350000Y-75550000D02*
X80071156Y-75550000D01*
X70539812Y-79461344D02*
X70539812Y-84006853D01*
X78140000Y-75340000D02*
X74661156Y-75340000D01*
X88660000Y-87220000D02*
X88670000Y-87210000D01*
X94842343Y-85811501D02*
X94842343Y-84430000D01*
X83200000Y-98500000D02*
X84300000Y-99600000D01*
X78340000Y-75540000D02*
X76150000Y-73350000D01*
X80688156Y-86603000D02*
X80101156Y-87190000D01*
X103740000Y-84430000D02*
X94842343Y-84430000D01*
X76070000Y-87200000D02*
X76080000Y-87210000D01*
X87922971Y-87220000D02*
X83241388Y-91901583D01*
X83241388Y-95908612D02*
X83200000Y-95950000D01*
%TD*%
M02*
