M48
METRIC,TZ
T1C0.400
T2C0.500
T3C0.650
T4C1.000
T5C3.200
%
G90
G05
T1
X29317Y-33085
X29317Y-34285
X29317Y-35485
X29317Y-36685
X29317Y-80085
X29317Y-81285
X29317Y-82485
X29317Y-83685
X29925Y-50300
X29925Y-97300
X29975Y-32125
X29975Y-79125
X30117Y-37475
X30117Y-84475
X30625Y-38325
X30625Y-85325
X31117Y-32075
X31117Y-79075
X31162Y-28742
X31162Y-75742
X31317Y-37475
X31317Y-84475
X31607Y-49609
X31607Y-96609
X32317Y-32075
X32317Y-79075
X32517Y-37475
X32517Y-84475
X33517Y-32075
X33517Y-37475
X33517Y-79075
X33517Y-84475
X33525Y-48230
X33525Y-95230
X33775Y-50745
X33775Y-97745
X34070Y-40200
X34070Y-87200
X34150Y-23620
X34150Y-70620
X34217Y-32975
X34217Y-79975
X34500Y-37525
X34500Y-84525
X35400Y-55850
X35400Y-102850
X35800Y-37875
X35800Y-84875
X36075Y-30725
X36075Y-77725
X36340Y-28540
X36340Y-75540
X36550Y-21465
X36550Y-68465
X37125Y-48075
X37125Y-95075
X37283Y-49116
X37283Y-96116
X38386Y-44240
X38386Y-91240
X38590Y-40800
X38590Y-87800
X38860Y-38225
X38860Y-85225
X39040Y-47913
X39040Y-94913
X39096Y-29838
X39096Y-76838
X40336Y-25686
X40336Y-72686
X40464Y-47891
X40464Y-94891
X41000Y-37400
X41000Y-84400
X41200Y-48950
X41200Y-95950
X41270Y-32380
X41270Y-79380
X41490Y-25630
X41490Y-72630
X42300Y-52600
X42300Y-99600
X42416Y-25589
X42416Y-72589
X43000Y-36200
X43000Y-83200
X43800Y-39444
X43800Y-86443
X44145Y-25420
X44145Y-72420
X44800Y-38400
X44800Y-85400
X45250Y-32600
X45250Y-79600
X46060Y-29875
X46060Y-76875
X46077Y-41165
X46077Y-88165
X46273Y-24625
X46273Y-71625
X46660Y-40220
X46660Y-87220
X47000Y-39000
X47000Y-86000
X47374Y-33550
X47374Y-80550
X47423Y-41035
X47423Y-88035
X48815Y-41740
X48815Y-88740
X48925Y-29955
X48925Y-76955
X49100Y-51200
X49100Y-98200
X49620Y-24780
X49620Y-71780
X49945Y-47990
X49945Y-94990
X50000Y-39200
X50000Y-86200
X50050Y-51200
X50050Y-98200
X50175Y-43600
X50175Y-90600
X50900Y-48350
X50900Y-95350
X51139Y-42571
X51139Y-89571
X51523Y-37210
X51523Y-38270
X51523Y-84210
X51523Y-85270
X52050Y-35120
X52050Y-82120
X52810Y-35950
X52810Y-82950
X53410Y-23850
X53410Y-70850
X53449Y-44881
X53449Y-91881
X54050Y-45815
X54050Y-92815
X54700Y-49350
X54700Y-96350
X55475Y-46382
X55475Y-93382
X55705Y-38580
X55705Y-85580
X55800Y-47250
X55800Y-94250
X56100Y-51300
X56100Y-98300
X56400Y-42400
X56400Y-89400
X57580Y-27260
X57580Y-74260
X57600Y-50800
X57600Y-97800
X59260Y-32810
X59260Y-79810
X60514Y-30064
X60514Y-77064
X60865Y-29207
X60865Y-76207
X71317Y-33085
X71317Y-34285
X71317Y-35485
X71317Y-36685
X71317Y-80085
X71317Y-81285
X71317Y-82485
X71317Y-83685
X71925Y-50300
X71925Y-97300
X71975Y-32125
X71975Y-79125
X72117Y-37475
X72117Y-84475
X72625Y-38325
X72625Y-85325
X73117Y-32075
X73117Y-79075
X73162Y-28742
X73162Y-75742
X73317Y-37475
X73317Y-84475
X73607Y-49609
X73607Y-96609
X74317Y-32075
X74317Y-79075
X74517Y-37475
X74517Y-84475
X75517Y-32075
X75517Y-37475
X75517Y-79075
X75517Y-84475
X75525Y-48230
X75525Y-95230
X75775Y-50745
X75775Y-97745
X76070Y-40200
X76070Y-87200
X76150Y-23620
X76150Y-70620
X76217Y-32975
X76217Y-79975
X76500Y-37525
X76500Y-84525
X77400Y-55850
X77400Y-102850
X77800Y-37875
X77800Y-84875
X78075Y-30725
X78075Y-77725
X78340Y-28540
X78340Y-75540
X78550Y-21465
X78550Y-68465
X79125Y-48075
X79125Y-95075
X79283Y-49116
X79283Y-96116
X80386Y-44240
X80386Y-91240
X80590Y-40800
X80590Y-87800
X80860Y-38225
X80860Y-85225
X81040Y-47913
X81040Y-94913
X81096Y-29838
X81096Y-76838
X82336Y-25686
X82336Y-72686
X82464Y-47891
X82464Y-94891
X83000Y-37400
X83000Y-84400
X83200Y-48950
X83200Y-95950
X83270Y-32380
X83270Y-79380
X83490Y-25630
X83490Y-72630
X84300Y-52600
X84300Y-99600
X84416Y-25589
X84416Y-72589
X85000Y-36200
X85000Y-83200
X85800Y-39444
X85800Y-86443
X86145Y-25420
X86145Y-72420
X86800Y-38400
X86800Y-85400
X87250Y-32600
X87250Y-79600
X88060Y-29875
X88060Y-76875
X88077Y-41165
X88077Y-88165
X88273Y-24625
X88273Y-71625
X88660Y-40220
X88660Y-87220
X89000Y-39000
X89000Y-86000
X89373Y-33550
X89373Y-80550
X89423Y-41035
X89423Y-88035
X90815Y-41740
X90815Y-88740
X90925Y-29955
X90925Y-76955
X91100Y-51200
X91100Y-98200
X91620Y-24780
X91620Y-71780
X91945Y-47990
X91945Y-94990
X92000Y-39200
X92000Y-86200
X92050Y-51200
X92050Y-98200
X92175Y-43600
X92175Y-90600
X92900Y-48350
X92900Y-95350
X93139Y-42571
X93139Y-89571
X93523Y-37210
X93523Y-38270
X93523Y-84210
X93523Y-85270
X94050Y-35120
X94050Y-82120
X94810Y-35950
X94810Y-82950
X95410Y-23850
X95410Y-70850
X95449Y-44881
X95449Y-91881
X96050Y-45815
X96050Y-92815
X96700Y-49350
X96700Y-96350
X97475Y-46382
X97475Y-93382
X97705Y-38580
X97705Y-85580
X97800Y-47250
X97800Y-94250
X98100Y-51300
X98100Y-98300
X98400Y-42400
X98400Y-89400
X99580Y-27260
X99580Y-74260
X99600Y-50800
X99600Y-97800
X101260Y-32810
X101260Y-79810
X102514Y-30064
X102514Y-77064
X102865Y-29207
X102865Y-76207
T2
X26600Y-55000
X26600Y-102000
X27303Y-53303
X27303Y-56697
X27303Y-100303
X27303Y-103697
X29000Y-52600
X29000Y-57400
X29000Y-99600
X29000Y-104400
X30697Y-53303
X30697Y-56697
X30697Y-100303
X30697Y-103697
X31400Y-55000
X31400Y-102000
X56600Y-20000
X56600Y-67000
X57303Y-18303
X57303Y-21697
X57303Y-65303
X57303Y-68697
X59000Y-17600
X59000Y-22400
X59000Y-64600
X59000Y-69400
X60697Y-18303
X60697Y-21697
X60697Y-65303
X60697Y-68697
X61400Y-20000
X61400Y-67000
X68600Y-55000
X68600Y-102000
X69303Y-53303
X69303Y-56697
X69303Y-100303
X69303Y-103697
X71000Y-52600
X71000Y-57400
X71000Y-99600
X71000Y-104400
X72697Y-53303
X72697Y-56697
X72697Y-100303
X72697Y-103697
X73400Y-55000
X73400Y-102000
X98600Y-20000
X98600Y-67000
X99303Y-18303
X99303Y-21697
X99303Y-65303
X99303Y-68697
X101000Y-17600
X101000Y-22400
X101000Y-64600
X101000Y-69400
X102697Y-18303
X102697Y-21697
X102697Y-65303
X102697Y-68697
X103400Y-20000
X103400Y-67000
T3
X45220Y-18800
X45220Y-20070
X45220Y-65800
X45220Y-67070
X46490Y-18800
X46490Y-20070
X46490Y-65800
X46490Y-67070
X47760Y-18800
X47760Y-20070
X47760Y-65800
X47760Y-67070
X49030Y-18800
X49030Y-20070
X49030Y-65800
X49030Y-67070
X50300Y-18800
X50300Y-20070
X50300Y-65800
X50300Y-67070
X87220Y-18800
X87220Y-20070
X87220Y-65800
X87220Y-67070
X88490Y-18800
X88490Y-20070
X88490Y-65800
X88490Y-67070
X89760Y-18800
X89760Y-20070
X89760Y-65800
X89760Y-67070
X91030Y-18800
X91030Y-20070
X91030Y-65800
X91030Y-67070
X92300Y-18800
X92300Y-20070
X92300Y-65800
X92300Y-67070
T4
X26300Y-17300
X26300Y-19840
X26300Y-22380
X26300Y-24920
X26300Y-27460
X26300Y-30000
X26300Y-32540
X26300Y-35080
X26300Y-37620
X26300Y-40160
X26300Y-42700
X26300Y-45240
X26300Y-47780
X26300Y-64300
X26300Y-66840
X26300Y-69380
X26300Y-71920
X26300Y-74460
X26300Y-77000
X26300Y-79540
X26300Y-82080
X26300Y-84620
X26300Y-87160
X26300Y-89700
X26300Y-92240
X26300Y-94780
X61740Y-34890
X61740Y-37430
X61740Y-39970
X61740Y-42510
X61740Y-45050
X61740Y-47590
X61740Y-50130
X61740Y-52670
X61740Y-55210
X61740Y-57750
X61740Y-81890
X61740Y-84430
X61740Y-86970
X61740Y-89510
X61740Y-92050
X61740Y-94590
X61740Y-97130
X61740Y-99670
X61740Y-102210
X61740Y-104750
X68300Y-17300
X68300Y-19840
X68300Y-22380
X68300Y-24920
X68300Y-27460
X68300Y-30000
X68300Y-32540
X68300Y-35080
X68300Y-37620
X68300Y-40160
X68300Y-42700
X68300Y-45240
X68300Y-47780
X68300Y-64300
X68300Y-66840
X68300Y-69380
X68300Y-71920
X68300Y-74460
X68300Y-77000
X68300Y-79540
X68300Y-82080
X68300Y-84620
X68300Y-87160
X68300Y-89700
X68300Y-92240
X68300Y-94780
X103740Y-34890
X103740Y-37430
X103740Y-39970
X103740Y-42510
X103740Y-45050
X103740Y-47590
X103740Y-50130
X103740Y-52670
X103740Y-55210
X103740Y-57750
X103740Y-81890
X103740Y-84430
X103740Y-86970
X103740Y-89510
X103740Y-92050
X103740Y-94590
X103740Y-97130
X103740Y-99670
X103740Y-102210
X103740Y-104750
T5
X29000Y-55000
X29000Y-102000
X59000Y-20000
X59000Y-67000
X71000Y-55000
X71000Y-102000
X101000Y-20000
X101000Y-67000
T0
M30
