%TF.GenerationSoftware,KiCad,Pcbnew,(6.0.11)*%
%TF.CreationDate,2023-02-14T10:41:56+13:00*%
%TF.ProjectId,shield_panel,73686965-6c64-45f7-9061-6e656c2e6b69,rev?*%
%TF.SameCoordinates,Original*%
%TF.FileFunction,Paste,Top*%
%TF.FilePolarity,Positive*%
%FSLAX46Y46*%
G04 Gerber Fmt 4.6, Leading zero omitted, Abs format (unit mm)*
G04 Created by KiCad (PCBNEW (6.0.11)) date 2023-02-14 10:41:56*
%MOMM*%
%LPD*%
G01*
G04 APERTURE LIST*
G04 Aperture macros list*
%AMRoundRect*
0 Rectangle with rounded corners*
0 $1 Rounding radius*
0 $2 $3 $4 $5 $6 $7 $8 $9 X,Y pos of 4 corners*
0 Add a 4 corners polygon primitive as box body*
4,1,4,$2,$3,$4,$5,$6,$7,$8,$9,$2,$3,0*
0 Add four circle primitives for the rounded corners*
1,1,$1+$1,$2,$3*
1,1,$1+$1,$4,$5*
1,1,$1+$1,$6,$7*
1,1,$1+$1,$8,$9*
0 Add four rect primitives between the rounded corners*
20,1,$1+$1,$2,$3,$4,$5,0*
20,1,$1+$1,$4,$5,$6,$7,0*
20,1,$1+$1,$6,$7,$8,$9,0*
20,1,$1+$1,$8,$9,$2,$3,0*%
G04 Aperture macros list end*
%ADD10R,1.010000X0.930000*%
%ADD11R,1.150000X0.600000*%
%ADD12R,0.530000X0.600000*%
%ADD13RoundRect,0.135000X-0.135000X-0.185000X0.135000X-0.185000X0.135000X0.185000X-0.135000X0.185000X0*%
%ADD14RoundRect,0.135000X0.185000X-0.135000X0.185000X0.135000X-0.185000X0.135000X-0.185000X-0.135000X0*%
%ADD15R,1.630000X2.169999*%
%ADD16RoundRect,0.218750X-0.256250X0.218750X-0.256250X-0.218750X0.256250X-0.218750X0.256250X0.218750X0*%
%ADD17R,2.108200X1.411999*%
%ADD18RoundRect,0.135000X0.135000X0.185000X-0.135000X0.185000X-0.135000X-0.185000X0.135000X-0.185000X0*%
%ADD19RoundRect,0.135000X-0.185000X0.135000X-0.185000X-0.135000X0.185000X-0.135000X0.185000X0.135000X0*%
%ADD20R,0.930000X1.010000*%
%ADD21R,0.800000X0.300000*%
%ADD22R,1.778000X3.505200*%
%ADD23RoundRect,0.140000X-0.140000X-0.170000X0.140000X-0.170000X0.140000X0.170000X-0.140000X0.170000X0*%
%ADD24RoundRect,0.140000X-0.170000X0.140000X-0.170000X-0.140000X0.170000X-0.140000X0.170000X0.140000X0*%
G04 APERTURE END LIST*
D10*
%TO.C,C207*%
X30582000Y-55450000D03*
X32000000Y-55450000D03*
%TD*%
D11*
%TO.C,IC202*%
X29500000Y-27700000D03*
X29500000Y-28650000D03*
X29500000Y-29600000D03*
X32000000Y-29600000D03*
X32000000Y-28650000D03*
X32000000Y-27700000D03*
%TD*%
D12*
%TO.C,C202*%
X72100000Y-50400000D03*
X72974000Y-50400000D03*
%TD*%
D13*
%TO.C,R210*%
X28590000Y-72950000D03*
X29610000Y-72950000D03*
%TD*%
D14*
%TO.C,R205*%
X71050000Y-57460000D03*
X71050000Y-56440000D03*
%TD*%
D15*
%TO.C,D206*%
X76900000Y-27328001D03*
X76900000Y-31048001D03*
%TD*%
D10*
%TO.C,C207*%
X72582000Y-102450000D03*
X74000000Y-102450000D03*
%TD*%
D16*
%TO.C,D501*%
X54742500Y-56962500D03*
X54742500Y-58537500D03*
%TD*%
D17*
%TO.C,L201*%
X73600000Y-95585598D03*
X73600000Y-90414402D03*
%TD*%
D11*
%TO.C,IC202*%
X71500000Y-74700000D03*
X71500000Y-75650000D03*
X71500000Y-76600000D03*
X74000000Y-76600000D03*
X74000000Y-75650000D03*
X74000000Y-74700000D03*
%TD*%
D14*
%TO.C,R205*%
X71050000Y-104460000D03*
X71050000Y-103440000D03*
%TD*%
D11*
%TO.C,IC202*%
X29500000Y-74700000D03*
X29500000Y-75650000D03*
X29500000Y-76600000D03*
X32000000Y-76600000D03*
X32000000Y-75650000D03*
X32000000Y-74700000D03*
%TD*%
D10*
%TO.C,C211*%
X30791000Y-78250000D03*
X32209000Y-78250000D03*
%TD*%
D18*
%TO.C,R206*%
X29050000Y-102350000D03*
X28030000Y-102350000D03*
%TD*%
D19*
%TO.C,R213*%
X29800000Y-79590000D03*
X29800000Y-80610000D03*
%TD*%
%TO.C,R202*%
X68850000Y-101090000D03*
X68850000Y-102110000D03*
%TD*%
D12*
%TO.C,C209*%
X30813000Y-73150000D03*
X31687000Y-73150000D03*
%TD*%
%TO.C,C202*%
X72100000Y-97400000D03*
X72974000Y-97400000D03*
%TD*%
D14*
%TO.C,R205*%
X29050000Y-57460000D03*
X29050000Y-56440000D03*
%TD*%
D19*
%TO.C,R213*%
X71800000Y-79590000D03*
X71800000Y-80610000D03*
%TD*%
D10*
%TO.C,C211*%
X30791000Y-31250000D03*
X32209000Y-31250000D03*
%TD*%
D20*
%TO.C,C210*%
X35917000Y-22200000D03*
X35917000Y-20782000D03*
%TD*%
D16*
%TO.C,D501*%
X96742500Y-103962500D03*
X96742500Y-105537500D03*
%TD*%
D21*
%TO.C,U502*%
X53670000Y-94945000D03*
X53670000Y-95445000D03*
X53670000Y-95945000D03*
X53670000Y-96445000D03*
X56770000Y-96445000D03*
X56770000Y-95945000D03*
X56770000Y-95445000D03*
X56770000Y-94945000D03*
%TD*%
D19*
%TO.C,R201*%
X68150000Y-52030000D03*
X68150000Y-53050000D03*
%TD*%
D11*
%TO.C,IC201*%
X70750000Y-51850000D03*
X70750000Y-52800000D03*
X70750000Y-53750000D03*
X73250000Y-53750000D03*
X73250000Y-52800000D03*
X73250000Y-51850000D03*
%TD*%
D16*
%TO.C,D501*%
X54742500Y-103962500D03*
X54742500Y-105537500D03*
%TD*%
D22*
%TO.C,F202*%
X79043400Y-34650000D03*
X84275800Y-34650000D03*
%TD*%
D18*
%TO.C,R206*%
X29050000Y-55350000D03*
X28030000Y-55350000D03*
%TD*%
%TO.C,R212*%
X73860000Y-80500000D03*
X72840000Y-80500000D03*
%TD*%
D10*
%TO.C,C211*%
X72791000Y-78250000D03*
X74209000Y-78250000D03*
%TD*%
D23*
%TO.C,C502*%
X96545000Y-93825000D03*
X97505000Y-93825000D03*
%TD*%
D12*
%TO.C,C209*%
X72813000Y-73150000D03*
X73687000Y-73150000D03*
%TD*%
D20*
%TO.C,C210*%
X77917000Y-22200000D03*
X77917000Y-20782000D03*
%TD*%
D22*
%TO.C,F202*%
X37043400Y-34650000D03*
X42275800Y-34650000D03*
%TD*%
D15*
%TO.C,D202*%
X34800000Y-53090000D03*
X34800000Y-56810000D03*
%TD*%
D18*
%TO.C,R212*%
X31860000Y-80500000D03*
X30840000Y-80500000D03*
%TD*%
D21*
%TO.C,U502*%
X53670000Y-47945000D03*
X53670000Y-48445000D03*
X53670000Y-48945000D03*
X53670000Y-49445000D03*
X56770000Y-49445000D03*
X56770000Y-48945000D03*
X56770000Y-48445000D03*
X56770000Y-47945000D03*
%TD*%
D17*
%TO.C,L201*%
X73600000Y-48585598D03*
X73600000Y-43414402D03*
%TD*%
D13*
%TO.C,R210*%
X70590000Y-72950000D03*
X71610000Y-72950000D03*
%TD*%
D22*
%TO.C,F201*%
X78933800Y-88750000D03*
X84166200Y-88750000D03*
%TD*%
D15*
%TO.C,D206*%
X76900000Y-74328001D03*
X76900000Y-78048001D03*
%TD*%
D23*
%TO.C,C502*%
X96545000Y-46825000D03*
X97505000Y-46825000D03*
%TD*%
D12*
%TO.C,C209*%
X72813000Y-26150000D03*
X73687000Y-26150000D03*
%TD*%
D18*
%TO.C,R212*%
X73860000Y-33500000D03*
X72840000Y-33500000D03*
%TD*%
D10*
%TO.C,C211*%
X72791000Y-31250000D03*
X74209000Y-31250000D03*
%TD*%
D19*
%TO.C,R211*%
X28700000Y-77990000D03*
X28700000Y-79010000D03*
%TD*%
D17*
%TO.C,L201*%
X31600000Y-95585598D03*
X31600000Y-90414402D03*
%TD*%
D19*
%TO.C,R501*%
X95172500Y-103665000D03*
X95172500Y-104685000D03*
%TD*%
D24*
%TO.C,C503*%
X58140000Y-94510000D03*
X58140000Y-95470000D03*
%TD*%
D13*
%TO.C,R210*%
X28590000Y-25950000D03*
X29610000Y-25950000D03*
%TD*%
D20*
%TO.C,C204*%
X35917000Y-47204500D03*
X35917000Y-45786500D03*
%TD*%
D19*
%TO.C,R213*%
X29800000Y-32590000D03*
X29800000Y-33610000D03*
%TD*%
%TO.C,R501*%
X53172500Y-103665000D03*
X53172500Y-104685000D03*
%TD*%
D12*
%TO.C,C209*%
X30813000Y-26150000D03*
X31687000Y-26150000D03*
%TD*%
D24*
%TO.C,C503*%
X100140000Y-47510000D03*
X100140000Y-48470000D03*
%TD*%
D17*
%TO.C,L203*%
X31650000Y-71435598D03*
X31650000Y-66264402D03*
%TD*%
%TO.C,L201*%
X31600000Y-48585598D03*
X31600000Y-43414402D03*
%TD*%
D15*
%TO.C,D202*%
X76800000Y-53090000D03*
X76800000Y-56810000D03*
%TD*%
D18*
%TO.C,R212*%
X31860000Y-33500000D03*
X30840000Y-33500000D03*
%TD*%
D20*
%TO.C,C204*%
X77917000Y-47204500D03*
X77917000Y-45786500D03*
%TD*%
D14*
%TO.C,R205*%
X29050000Y-104460000D03*
X29050000Y-103440000D03*
%TD*%
D22*
%TO.C,F202*%
X79043400Y-81650000D03*
X84275800Y-81650000D03*
%TD*%
D16*
%TO.C,D501*%
X96742500Y-56962500D03*
X96742500Y-58537500D03*
%TD*%
D15*
%TO.C,D202*%
X34800000Y-100090000D03*
X34800000Y-103810000D03*
%TD*%
D18*
%TO.C,R206*%
X71050000Y-102350000D03*
X70030000Y-102350000D03*
%TD*%
D10*
%TO.C,C207*%
X72582000Y-55450000D03*
X74000000Y-55450000D03*
%TD*%
D19*
%TO.C,R211*%
X70700000Y-30990000D03*
X70700000Y-32010000D03*
%TD*%
D11*
%TO.C,IC202*%
X71500000Y-27700000D03*
X71500000Y-28650000D03*
X71500000Y-29600000D03*
X74000000Y-29600000D03*
X74000000Y-28650000D03*
X74000000Y-27700000D03*
%TD*%
D24*
%TO.C,C503*%
X58140000Y-47510000D03*
X58140000Y-48470000D03*
%TD*%
D20*
%TO.C,C204*%
X35917000Y-94204500D03*
X35917000Y-92786500D03*
%TD*%
%TO.C,C210*%
X35917000Y-69200000D03*
X35917000Y-67782000D03*
%TD*%
D24*
%TO.C,C503*%
X100140000Y-94510000D03*
X100140000Y-95470000D03*
%TD*%
D13*
%TO.C,R210*%
X70590000Y-25950000D03*
X71610000Y-25950000D03*
%TD*%
D12*
%TO.C,C202*%
X30100000Y-50400000D03*
X30974000Y-50400000D03*
%TD*%
D19*
%TO.C,R202*%
X26850000Y-101090000D03*
X26850000Y-102110000D03*
%TD*%
D17*
%TO.C,L203*%
X73650000Y-24435598D03*
X73650000Y-19264402D03*
%TD*%
D19*
%TO.C,R211*%
X28700000Y-30990000D03*
X28700000Y-32010000D03*
%TD*%
%TO.C,R213*%
X71800000Y-32590000D03*
X71800000Y-33610000D03*
%TD*%
D21*
%TO.C,U502*%
X95670000Y-47945000D03*
X95670000Y-48445000D03*
X95670000Y-48945000D03*
X95670000Y-49445000D03*
X98770000Y-49445000D03*
X98770000Y-48945000D03*
X98770000Y-48445000D03*
X98770000Y-47945000D03*
%TD*%
%TO.C,U502*%
X95670000Y-94945000D03*
X95670000Y-95445000D03*
X95670000Y-95945000D03*
X95670000Y-96445000D03*
X98770000Y-96445000D03*
X98770000Y-95945000D03*
X98770000Y-95445000D03*
X98770000Y-94945000D03*
%TD*%
D19*
%TO.C,R501*%
X95172500Y-56665000D03*
X95172500Y-57685000D03*
%TD*%
D10*
%TO.C,C207*%
X30582000Y-102450000D03*
X32000000Y-102450000D03*
%TD*%
D20*
%TO.C,C210*%
X77917000Y-69200000D03*
X77917000Y-67782000D03*
%TD*%
D19*
%TO.C,R201*%
X26150000Y-99030000D03*
X26150000Y-100050000D03*
%TD*%
D22*
%TO.C,F201*%
X78933800Y-41750000D03*
X84166200Y-41750000D03*
%TD*%
D20*
%TO.C,C204*%
X77917000Y-94204500D03*
X77917000Y-92786500D03*
%TD*%
D19*
%TO.C,R501*%
X53172500Y-56665000D03*
X53172500Y-57685000D03*
%TD*%
%TO.C,R211*%
X70700000Y-77990000D03*
X70700000Y-79010000D03*
%TD*%
D11*
%TO.C,IC201*%
X28750000Y-98850000D03*
X28750000Y-99800000D03*
X28750000Y-100750000D03*
X31250000Y-100750000D03*
X31250000Y-99800000D03*
X31250000Y-98850000D03*
%TD*%
D23*
%TO.C,C502*%
X54545000Y-93825000D03*
X55505000Y-93825000D03*
%TD*%
D22*
%TO.C,F202*%
X37043400Y-81650000D03*
X42275800Y-81650000D03*
%TD*%
D18*
%TO.C,R206*%
X71050000Y-55350000D03*
X70030000Y-55350000D03*
%TD*%
D15*
%TO.C,D206*%
X34900000Y-27328001D03*
X34900000Y-31048001D03*
%TD*%
D23*
%TO.C,C502*%
X54545000Y-46825000D03*
X55505000Y-46825000D03*
%TD*%
D22*
%TO.C,F201*%
X36933800Y-41750000D03*
X42166200Y-41750000D03*
%TD*%
D12*
%TO.C,C202*%
X30100000Y-97400000D03*
X30974000Y-97400000D03*
%TD*%
D19*
%TO.C,R202*%
X68850000Y-54090000D03*
X68850000Y-55110000D03*
%TD*%
D17*
%TO.C,L203*%
X31650000Y-24435598D03*
X31650000Y-19264402D03*
%TD*%
D15*
%TO.C,D206*%
X34900000Y-74328001D03*
X34900000Y-78048001D03*
%TD*%
D17*
%TO.C,L203*%
X73650000Y-71435598D03*
X73650000Y-66264402D03*
%TD*%
D19*
%TO.C,R201*%
X68150000Y-99030000D03*
X68150000Y-100050000D03*
%TD*%
D15*
%TO.C,D202*%
X76800000Y-100090000D03*
X76800000Y-103810000D03*
%TD*%
D19*
%TO.C,R202*%
X26850000Y-54090000D03*
X26850000Y-55110000D03*
%TD*%
D11*
%TO.C,IC201*%
X70750000Y-98850000D03*
X70750000Y-99800000D03*
X70750000Y-100750000D03*
X73250000Y-100750000D03*
X73250000Y-99800000D03*
X73250000Y-98850000D03*
%TD*%
%TO.C,IC201*%
X28750000Y-51850000D03*
X28750000Y-52800000D03*
X28750000Y-53750000D03*
X31250000Y-53750000D03*
X31250000Y-52800000D03*
X31250000Y-51850000D03*
%TD*%
D22*
%TO.C,F201*%
X36933800Y-88750000D03*
X42166200Y-88750000D03*
%TD*%
D19*
%TO.C,R201*%
X26150000Y-52030000D03*
X26150000Y-53050000D03*
%TD*%
M02*
