M48
METRIC,TZ
T1C0.400
T2C1.000
T3C1.900
%
G90
G05
T1
X26850Y-56100
X26850Y-103100
X27350Y-51450
X27350Y-52400
X27350Y-98450
X27350Y-99400
X28700Y-32950
X28700Y-79950
X30100Y-56700
X30100Y-103700
X30750Y-28350
X30750Y-29300
X30750Y-32500
X30750Y-75350
X30750Y-76300
X30750Y-79500
X31000Y-56700
X31000Y-103700
X31650Y-32500
X31650Y-79500
X33423Y-56450
X33423Y-103450
X33557Y-31103
X33557Y-78103
X35867Y-48300
X35867Y-95300
X36042Y-23950
X36042Y-70950
X36517Y-48850
X36517Y-95850
X36692Y-23450
X36692Y-70450
X51975Y-40100
X51975Y-87100
X53163Y-58820
X53163Y-105820
X53873Y-40250
X53873Y-87250
X54728Y-48339
X54728Y-95339
X56000Y-43425
X56000Y-90425
X58150Y-46485
X58150Y-93485
X59281Y-41956
X59281Y-45319
X59281Y-88956
X59281Y-92319
X60102Y-36600
X60102Y-83600
X68850Y-56100
X68850Y-103100
X69350Y-51450
X69350Y-52400
X69350Y-98450
X69350Y-99400
X70700Y-32950
X70700Y-79950
X72100Y-56700
X72100Y-103700
X72750Y-28350
X72750Y-29300
X72750Y-32500
X72750Y-75350
X72750Y-76300
X72750Y-79500
X73000Y-56700
X73000Y-103700
X73650Y-32500
X73650Y-79500
X75423Y-56450
X75423Y-103450
X75557Y-31103
X75557Y-78103
X77867Y-48300
X77867Y-95300
X78042Y-23950
X78042Y-70950
X78517Y-48850
X78517Y-95850
X78692Y-23450
X78692Y-70450
X93975Y-40100
X93975Y-87100
X95163Y-58820
X95163Y-105820
X95873Y-40250
X95873Y-87250
X96728Y-48339
X96728Y-95339
X98000Y-43425
X98000Y-90425
X100150Y-46485
X100150Y-93485
X101281Y-41956
X101281Y-45319
X101281Y-88956
X101281Y-92319
X102102Y-36600
X102102Y-83600
T2
X26300Y-17308
X26300Y-19848
X26300Y-22388
X26300Y-24928
X26300Y-27468
X26300Y-30008
X26300Y-32548
X26300Y-35088
X26300Y-37628
X26300Y-40168
X26300Y-42708
X26300Y-45248
X26300Y-47788
X26300Y-64308
X26300Y-66848
X26300Y-69388
X26300Y-71928
X26300Y-74468
X26300Y-77008
X26300Y-79548
X26300Y-82088
X26300Y-84628
X26300Y-87168
X26300Y-89708
X26300Y-92248
X26300Y-94788
X38500Y-24550
X38500Y-56400
X38500Y-71550
X38500Y-103400
X49500Y-24550
X49500Y-56400
X49500Y-71550
X49500Y-103400
X54825Y-34238
X54825Y-36738
X54825Y-39238
X54825Y-41738
X54825Y-81238
X54825Y-83738
X54825Y-86238
X54825Y-88738
X56325Y-23500
X56325Y-70500
X58825Y-23500
X58825Y-70500
X61717Y-34890
X61717Y-37430
X61717Y-39970
X61717Y-42510
X61717Y-45050
X61717Y-47590
X61717Y-50130
X61717Y-52670
X61717Y-55210
X61717Y-57750
X61717Y-81890
X61717Y-84430
X61717Y-86970
X61717Y-89510
X61717Y-92050
X61717Y-94590
X61717Y-97130
X61717Y-99670
X61717Y-102210
X61717Y-104750
X68300Y-17308
X68300Y-19848
X68300Y-22388
X68300Y-24928
X68300Y-27468
X68300Y-30008
X68300Y-32548
X68300Y-35088
X68300Y-37628
X68300Y-40168
X68300Y-42708
X68300Y-45248
X68300Y-47788
X68300Y-64308
X68300Y-66848
X68300Y-69388
X68300Y-71928
X68300Y-74468
X68300Y-77008
X68300Y-79548
X68300Y-82088
X68300Y-84628
X68300Y-87168
X68300Y-89708
X68300Y-92248
X68300Y-94788
X80500Y-24550
X80500Y-56400
X80500Y-71550
X80500Y-103400
X91500Y-24550
X91500Y-56400
X91500Y-71550
X91500Y-103400
X96825Y-34238
X96825Y-36738
X96825Y-39238
X96825Y-41738
X96825Y-81238
X96825Y-83738
X96825Y-86238
X96825Y-88738
X98325Y-23500
X98325Y-70500
X100825Y-23500
X100825Y-70500
X103717Y-34890
X103717Y-37430
X103717Y-39970
X103717Y-42510
X103717Y-45050
X103717Y-47590
X103717Y-50130
X103717Y-52670
X103717Y-55210
X103717Y-57750
X103717Y-81890
X103717Y-84430
X103717Y-86970
X103717Y-89510
X103717Y-92050
X103717Y-94590
X103717Y-97130
X103717Y-99670
X103717Y-102210
X103717Y-104750
T3
X41500Y-29550
X41500Y-46400
X41500Y-76550
X41500Y-93400
X46500Y-29550
X46500Y-46400
X46500Y-76550
X46500Y-93400
X83500Y-29550
X83500Y-46400
X83500Y-76550
X83500Y-93400
X88500Y-29550
X88500Y-46400
X88500Y-76550
X88500Y-93400
T0
M30
