%TF.GenerationSoftware,KiCad,Pcbnew,(6.0.11)*%
%TF.CreationDate,2023-02-14T10:41:56+13:00*%
%TF.ProjectId,shield_panel,73686965-6c64-45f7-9061-6e656c2e6b69,rev?*%
%TF.SameCoordinates,Original*%
%TF.FileFunction,Soldermask,Bot*%
%TF.FilePolarity,Negative*%
%FSLAX46Y46*%
G04 Gerber Fmt 4.6, Leading zero omitted, Abs format (unit mm)*
G04 Created by KiCad (PCBNEW (6.0.11)) date 2023-02-14 10:41:56*
%MOMM*%
%LPD*%
G01*
G04 APERTURE LIST*
%ADD10C,0.500000*%
%ADD11C,1.400000*%
%ADD12R,3.500000X3.500000*%
%ADD13C,3.500000*%
%ADD14R,1.700000X1.700000*%
%ADD15O,1.700000X1.700000*%
%ADD16R,1.508000X1.508000*%
%ADD17C,1.508000*%
G04 APERTURE END LIST*
D10*
%TO.C,REF\u002A\u002A*%
X66200000Y-85500000D03*
%TD*%
%TO.C,REF\u002A\u002A*%
X77333333Y-62200000D03*
%TD*%
%TO.C,REF\u002A\u002A*%
X90666666Y-62200000D03*
%TD*%
%TO.C,REF\u002A\u002A*%
X79333333Y-59800000D03*
%TD*%
%TO.C,REF\u002A\u002A*%
X63800000Y-37500000D03*
%TD*%
%TO.C,REF\u002A\u002A*%
X105800000Y-85500000D03*
%TD*%
%TO.C,REF\u002A\u002A*%
X66200000Y-73250000D03*
%TD*%
%TO.C,REF\u002A\u002A*%
X24200000Y-38500000D03*
%TD*%
%TO.C,REF\u002A\u002A*%
X63800000Y-71250000D03*
%TD*%
%TO.C,REF\u002A\u002A*%
X66200000Y-49750000D03*
%TD*%
%TO.C,REF\u002A\u002A*%
X63800000Y-26250000D03*
%TD*%
%TO.C,REF\u002A\u002A*%
X35333334Y-62200000D03*
%TD*%
%TO.C,REF\u002A\u002A*%
X48666666Y-59800000D03*
%TD*%
D11*
%TO.C,J202*%
X49500000Y-56400000D03*
X38500000Y-56400000D03*
D12*
X41500000Y-46400000D03*
D13*
X46500000Y-46400000D03*
%TD*%
D10*
%TO.C,REF\u002A\u002A*%
X39333334Y-59800000D03*
%TD*%
%TO.C,REF\u002A\u002A*%
X66200000Y-24250000D03*
%TD*%
%TO.C,REF\u002A\u002A*%
X94666666Y-59800000D03*
%TD*%
%TO.C,REF\u002A\u002A*%
X66200000Y-39500000D03*
%TD*%
%TO.C,REF\u002A\u002A*%
X93666666Y-59800000D03*
%TD*%
%TO.C,REF\u002A\u002A*%
X24200000Y-96750000D03*
%TD*%
D14*
%TO.C,J504*%
X61717000Y-81890000D03*
D15*
X61717000Y-84430000D03*
X61717000Y-86970000D03*
X61717000Y-89510000D03*
X61717000Y-92050000D03*
X61717000Y-94590000D03*
X61717000Y-97130000D03*
X61717000Y-99670000D03*
X61717000Y-102210000D03*
X61717000Y-104750000D03*
%TD*%
D10*
%TO.C,REF\u002A\u002A*%
X24200000Y-36500000D03*
%TD*%
%TO.C,REF\u002A\u002A*%
X24200000Y-73250000D03*
%TD*%
%TO.C,REF\u002A\u002A*%
X105800000Y-38500000D03*
%TD*%
%TO.C,REF\u002A\u002A*%
X94666666Y-62200000D03*
%TD*%
%TO.C,REF\u002A\u002A*%
X63800000Y-82500000D03*
%TD*%
%TO.C,REF\u002A\u002A*%
X66200000Y-50750000D03*
%TD*%
D11*
%TO.C,J201*%
X91500000Y-24550000D03*
X80500000Y-24550000D03*
D12*
X83500000Y-29550000D03*
D13*
X88500000Y-29550000D03*
%TD*%
D10*
%TO.C,REF\u002A\u002A*%
X105800000Y-28250000D03*
%TD*%
%TO.C,REF\u002A\u002A*%
X79333333Y-62200000D03*
%TD*%
%TO.C,REF\u002A\u002A*%
X91666666Y-59800000D03*
%TD*%
%TO.C,REF\u002A\u002A*%
X66200000Y-93750000D03*
%TD*%
%TO.C,REF\u002A\u002A*%
X66200000Y-36500000D03*
%TD*%
%TO.C,REF\u002A\u002A*%
X105800000Y-84500000D03*
%TD*%
%TO.C,REF\u002A\u002A*%
X105800000Y-48750000D03*
%TD*%
%TO.C,REF\u002A\u002A*%
X37333334Y-62200000D03*
%TD*%
%TO.C,REF\u002A\u002A*%
X66200000Y-83500000D03*
%TD*%
%TO.C,REF\u002A\u002A*%
X39333334Y-62200000D03*
%TD*%
%TO.C,REF\u002A\u002A*%
X24200000Y-83500000D03*
%TD*%
%TO.C,REF\u002A\u002A*%
X24200000Y-72250000D03*
%TD*%
%TO.C,REF\u002A\u002A*%
X105800000Y-37500000D03*
%TD*%
%TO.C,REF\u002A\u002A*%
X105800000Y-75250000D03*
%TD*%
D11*
%TO.C,J201*%
X38500000Y-71550000D03*
X49500000Y-71550000D03*
D12*
X41500000Y-76550000D03*
D13*
X46500000Y-76550000D03*
%TD*%
D10*
%TO.C,REF\u002A\u002A*%
X105800000Y-72250000D03*
%TD*%
D16*
%TO.C,J501*%
X54825000Y-34237500D03*
D17*
X54825000Y-36737500D03*
X54825000Y-39237500D03*
X54825000Y-41737500D03*
%TD*%
D10*
%TO.C,REF\u002A\u002A*%
X66200000Y-47750000D03*
%TD*%
%TO.C,REF\u002A\u002A*%
X24200000Y-49750000D03*
%TD*%
%TO.C,REF\u002A\u002A*%
X24200000Y-24250000D03*
%TD*%
D11*
%TO.C,J201*%
X91500000Y-71550000D03*
X80500000Y-71550000D03*
D12*
X83500000Y-76550000D03*
D13*
X88500000Y-76550000D03*
%TD*%
D11*
%TO.C,J202*%
X91500000Y-103400000D03*
X80500000Y-103400000D03*
D12*
X83500000Y-93400000D03*
D13*
X88500000Y-93400000D03*
%TD*%
D10*
%TO.C,REF\u002A\u002A*%
X92666666Y-59800000D03*
%TD*%
%TO.C,REF\u002A\u002A*%
X66200000Y-27250000D03*
%TD*%
%TO.C,REF\u002A\u002A*%
X78333333Y-62200000D03*
%TD*%
%TO.C,REF\u002A\u002A*%
X66200000Y-84500000D03*
%TD*%
%TO.C,REF\u002A\u002A*%
X81333333Y-59800000D03*
%TD*%
%TO.C,REF\u002A\u002A*%
X105800000Y-97750000D03*
%TD*%
%TO.C,REF\u002A\u002A*%
X66200000Y-72250000D03*
%TD*%
%TO.C,REF\u002A\u002A*%
X63800000Y-35500000D03*
%TD*%
%TO.C,REF\u002A\u002A*%
X63800000Y-72250000D03*
%TD*%
D16*
%TO.C,J502*%
X56325000Y-70500000D03*
D17*
X58825000Y-70500000D03*
%TD*%
D10*
%TO.C,REF\u002A\u002A*%
X24200000Y-74250000D03*
%TD*%
D11*
%TO.C,J202*%
X49500000Y-103400000D03*
X38500000Y-103400000D03*
D12*
X41500000Y-93400000D03*
D13*
X46500000Y-93400000D03*
%TD*%
D10*
%TO.C,REF\u002A\u002A*%
X66200000Y-94750000D03*
%TD*%
%TO.C,REF\u002A\u002A*%
X92666666Y-62200000D03*
%TD*%
%TO.C,REF\u002A\u002A*%
X24200000Y-97750000D03*
%TD*%
%TO.C,REF\u002A\u002A*%
X66200000Y-96750000D03*
%TD*%
%TO.C,REF\u002A\u002A*%
X66200000Y-82500000D03*
%TD*%
D11*
%TO.C,J201*%
X38500000Y-24550000D03*
X49500000Y-24550000D03*
D12*
X41500000Y-29550000D03*
D13*
X46500000Y-29550000D03*
%TD*%
D10*
%TO.C,REF\u002A\u002A*%
X63800000Y-84500000D03*
%TD*%
%TO.C,REF\u002A\u002A*%
X105800000Y-74250000D03*
%TD*%
%TO.C,REF\u002A\u002A*%
X24200000Y-75250000D03*
%TD*%
%TO.C,REF\u002A\u002A*%
X66200000Y-86500000D03*
%TD*%
%TO.C,REF\u002A\u002A*%
X63800000Y-46750000D03*
%TD*%
%TO.C,REF\u002A\u002A*%
X66200000Y-26250000D03*
%TD*%
%TO.C,REF\u002A\u002A*%
X63800000Y-39500000D03*
%TD*%
%TO.C,REF\u002A\u002A*%
X78333333Y-59800000D03*
%TD*%
%TO.C,REF\u002A\u002A*%
X63800000Y-86500000D03*
%TD*%
%TO.C,REF\u002A\u002A*%
X66200000Y-35500000D03*
%TD*%
%TO.C,REF\u002A\u002A*%
X49666666Y-62200000D03*
%TD*%
%TO.C,REF\u002A\u002A*%
X63800000Y-97750000D03*
%TD*%
%TO.C,REF\u002A\u002A*%
X63800000Y-74250000D03*
%TD*%
D14*
%TO.C,J504*%
X103717000Y-81890000D03*
D15*
X103717000Y-84430000D03*
X103717000Y-86970000D03*
X103717000Y-89510000D03*
X103717000Y-92050000D03*
X103717000Y-94590000D03*
X103717000Y-97130000D03*
X103717000Y-99670000D03*
X103717000Y-102210000D03*
X103717000Y-104750000D03*
%TD*%
D10*
%TO.C,REF\u002A\u002A*%
X63800000Y-24250000D03*
%TD*%
%TO.C,REF\u002A\u002A*%
X63800000Y-94750000D03*
%TD*%
%TO.C,REF\u002A\u002A*%
X90666666Y-59800000D03*
%TD*%
%TO.C,REF\u002A\u002A*%
X66200000Y-71250000D03*
%TD*%
%TO.C,REF\u002A\u002A*%
X66200000Y-25250000D03*
%TD*%
%TO.C,REF\u002A\u002A*%
X66200000Y-37500000D03*
%TD*%
%TO.C,REF\u002A\u002A*%
X36333334Y-62200000D03*
%TD*%
%TO.C,REF\u002A\u002A*%
X24200000Y-27250000D03*
%TD*%
%TO.C,REF\u002A\u002A*%
X24200000Y-47750000D03*
%TD*%
%TO.C,REF\u002A\u002A*%
X37333334Y-59800000D03*
%TD*%
%TO.C,REF\u002A\u002A*%
X91666666Y-62200000D03*
%TD*%
%TO.C,REF\u002A\u002A*%
X49666666Y-59800000D03*
%TD*%
%TO.C,REF\u002A\u002A*%
X24200000Y-28250000D03*
%TD*%
%TO.C,REF\u002A\u002A*%
X66200000Y-48750000D03*
%TD*%
%TO.C,REF\u002A\u002A*%
X63800000Y-28250000D03*
%TD*%
%TO.C,REF\u002A\u002A*%
X105800000Y-47750000D03*
%TD*%
%TO.C,REF\u002A\u002A*%
X24200000Y-39500000D03*
%TD*%
%TO.C,REF\u002A\u002A*%
X80333333Y-59800000D03*
%TD*%
%TO.C,REF\u002A\u002A*%
X51666666Y-62200000D03*
%TD*%
%TO.C,REF\u002A\u002A*%
X35333334Y-59800000D03*
%TD*%
%TO.C,REF\u002A\u002A*%
X77333333Y-59800000D03*
%TD*%
D16*
%TO.C,J501*%
X96825000Y-34237500D03*
D17*
X96825000Y-36737500D03*
X96825000Y-39237500D03*
X96825000Y-41737500D03*
%TD*%
D10*
%TO.C,REF\u002A\u002A*%
X80333333Y-62200000D03*
%TD*%
D16*
%TO.C,J502*%
X98325000Y-23500000D03*
D17*
X100825000Y-23500000D03*
%TD*%
D10*
%TO.C,REF\u002A\u002A*%
X93666666Y-62200000D03*
%TD*%
%TO.C,REF\u002A\u002A*%
X105800000Y-96750000D03*
%TD*%
%TO.C,REF\u002A\u002A*%
X24200000Y-94750000D03*
%TD*%
%TO.C,REF\u002A\u002A*%
X63800000Y-49750000D03*
%TD*%
%TO.C,REF\u002A\u002A*%
X63800000Y-73250000D03*
%TD*%
%TO.C,REF\u002A\u002A*%
X24200000Y-86500000D03*
%TD*%
%TO.C,REF\u002A\u002A*%
X63800000Y-27250000D03*
%TD*%
%TO.C,REF\u002A\u002A*%
X81333333Y-62200000D03*
%TD*%
%TO.C,REF\u002A\u002A*%
X63800000Y-48750000D03*
%TD*%
%TO.C,REF\u002A\u002A*%
X24200000Y-26250000D03*
%TD*%
%TO.C,REF\u002A\u002A*%
X24200000Y-71250000D03*
%TD*%
%TO.C,REF\u002A\u002A*%
X63800000Y-93750000D03*
%TD*%
%TO.C,REF\u002A\u002A*%
X66200000Y-97750000D03*
%TD*%
D14*
%TO.C,J504*%
X61717000Y-34890000D03*
D15*
X61717000Y-37430000D03*
X61717000Y-39970000D03*
X61717000Y-42510000D03*
X61717000Y-45050000D03*
X61717000Y-47590000D03*
X61717000Y-50130000D03*
X61717000Y-52670000D03*
X61717000Y-55210000D03*
X61717000Y-57750000D03*
%TD*%
D10*
%TO.C,REF\u002A\u002A*%
X63800000Y-47750000D03*
%TD*%
D14*
%TO.C,J506*%
X26300000Y-64308000D03*
D15*
X26300000Y-66848000D03*
X26300000Y-69388000D03*
X26300000Y-71928000D03*
X26300000Y-74468000D03*
X26300000Y-77008000D03*
X26300000Y-79548000D03*
X26300000Y-82088000D03*
X26300000Y-84628000D03*
X26300000Y-87168000D03*
X26300000Y-89708000D03*
X26300000Y-92248000D03*
X26300000Y-94788000D03*
%TD*%
D16*
%TO.C,J501*%
X96825000Y-81237500D03*
D17*
X96825000Y-83737500D03*
X96825000Y-86237500D03*
X96825000Y-88737500D03*
%TD*%
D10*
%TO.C,REF\u002A\u002A*%
X66200000Y-38500000D03*
%TD*%
D14*
%TO.C,J506*%
X26300000Y-17308000D03*
D15*
X26300000Y-19848000D03*
X26300000Y-22388000D03*
X26300000Y-24928000D03*
X26300000Y-27468000D03*
X26300000Y-30008000D03*
X26300000Y-32548000D03*
X26300000Y-35088000D03*
X26300000Y-37628000D03*
X26300000Y-40168000D03*
X26300000Y-42708000D03*
X26300000Y-45248000D03*
X26300000Y-47788000D03*
%TD*%
D10*
%TO.C,REF\u002A\u002A*%
X50666666Y-59800000D03*
%TD*%
%TO.C,REF\u002A\u002A*%
X66200000Y-75250000D03*
%TD*%
%TO.C,REF\u002A\u002A*%
X105800000Y-73250000D03*
%TD*%
%TO.C,REF\u002A\u002A*%
X52666666Y-59800000D03*
%TD*%
%TO.C,REF\u002A\u002A*%
X50666666Y-62200000D03*
%TD*%
%TO.C,REF\u002A\u002A*%
X24200000Y-48750000D03*
%TD*%
D16*
%TO.C,J502*%
X98325000Y-70500000D03*
D17*
X100825000Y-70500000D03*
%TD*%
D10*
%TO.C,REF\u002A\u002A*%
X105800000Y-86500000D03*
%TD*%
%TO.C,REF\u002A\u002A*%
X38333334Y-59800000D03*
%TD*%
%TO.C,REF\u002A\u002A*%
X105800000Y-83500000D03*
%TD*%
%TO.C,REF\u002A\u002A*%
X66200000Y-28250000D03*
%TD*%
%TO.C,REF\u002A\u002A*%
X105800000Y-27250000D03*
%TD*%
%TO.C,REF\u002A\u002A*%
X105800000Y-35500000D03*
%TD*%
%TO.C,REF\u002A\u002A*%
X63800000Y-50750000D03*
%TD*%
%TO.C,REF\u002A\u002A*%
X105800000Y-95750000D03*
%TD*%
D14*
%TO.C,J506*%
X68300000Y-17308000D03*
D15*
X68300000Y-19848000D03*
X68300000Y-22388000D03*
X68300000Y-24928000D03*
X68300000Y-27468000D03*
X68300000Y-30008000D03*
X68300000Y-32548000D03*
X68300000Y-35088000D03*
X68300000Y-37628000D03*
X68300000Y-40168000D03*
X68300000Y-42708000D03*
X68300000Y-45248000D03*
X68300000Y-47788000D03*
%TD*%
D14*
%TO.C,J504*%
X103717000Y-34890000D03*
D15*
X103717000Y-37430000D03*
X103717000Y-39970000D03*
X103717000Y-42510000D03*
X103717000Y-45050000D03*
X103717000Y-47590000D03*
X103717000Y-50130000D03*
X103717000Y-52670000D03*
X103717000Y-55210000D03*
X103717000Y-57750000D03*
%TD*%
D10*
%TO.C,REF\u002A\u002A*%
X24200000Y-50750000D03*
%TD*%
%TO.C,REF\u002A\u002A*%
X24200000Y-35500000D03*
%TD*%
%TO.C,REF\u002A\u002A*%
X63800000Y-25250000D03*
%TD*%
%TO.C,REF\u002A\u002A*%
X105800000Y-46750000D03*
%TD*%
%TO.C,REF\u002A\u002A*%
X24200000Y-82500000D03*
%TD*%
%TO.C,REF\u002A\u002A*%
X63800000Y-36500000D03*
%TD*%
%TO.C,REF\u002A\u002A*%
X105800000Y-26250000D03*
%TD*%
%TO.C,REF\u002A\u002A*%
X105800000Y-49750000D03*
%TD*%
%TO.C,REF\u002A\u002A*%
X105800000Y-82500000D03*
%TD*%
%TO.C,REF\u002A\u002A*%
X63800000Y-95750000D03*
%TD*%
%TO.C,REF\u002A\u002A*%
X63800000Y-75250000D03*
%TD*%
%TO.C,REF\u002A\u002A*%
X24200000Y-37500000D03*
%TD*%
%TO.C,REF\u002A\u002A*%
X48666666Y-62200000D03*
%TD*%
D16*
%TO.C,J502*%
X56325000Y-23500000D03*
D17*
X58825000Y-23500000D03*
%TD*%
D10*
%TO.C,REF\u002A\u002A*%
X63800000Y-38500000D03*
%TD*%
%TO.C,REF\u002A\u002A*%
X24200000Y-84500000D03*
%TD*%
%TO.C,REF\u002A\u002A*%
X24200000Y-25250000D03*
%TD*%
%TO.C,REF\u002A\u002A*%
X105800000Y-94750000D03*
%TD*%
%TO.C,REF\u002A\u002A*%
X66200000Y-74250000D03*
%TD*%
%TO.C,REF\u002A\u002A*%
X24200000Y-85500000D03*
%TD*%
%TO.C,REF\u002A\u002A*%
X24200000Y-95750000D03*
%TD*%
%TO.C,REF\u002A\u002A*%
X36333334Y-59800000D03*
%TD*%
%TO.C,REF\u002A\u002A*%
X51666666Y-59800000D03*
%TD*%
%TO.C,REF\u002A\u002A*%
X24200000Y-93750000D03*
%TD*%
%TO.C,REF\u002A\u002A*%
X105800000Y-93750000D03*
%TD*%
D11*
%TO.C,J202*%
X80500000Y-56400000D03*
X91500000Y-56400000D03*
D12*
X83500000Y-46400000D03*
D13*
X88500000Y-46400000D03*
%TD*%
D10*
%TO.C,REF\u002A\u002A*%
X105800000Y-25250000D03*
%TD*%
%TO.C,REF\u002A\u002A*%
X105800000Y-39500000D03*
%TD*%
%TO.C,REF\u002A\u002A*%
X105800000Y-50750000D03*
%TD*%
%TO.C,REF\u002A\u002A*%
X66200000Y-46750000D03*
%TD*%
%TO.C,REF\u002A\u002A*%
X105800000Y-36500000D03*
%TD*%
D16*
%TO.C,J501*%
X54825000Y-81237500D03*
D17*
X54825000Y-83737500D03*
X54825000Y-86237500D03*
X54825000Y-88737500D03*
%TD*%
D10*
%TO.C,REF\u002A\u002A*%
X52666666Y-62200000D03*
%TD*%
%TO.C,REF\u002A\u002A*%
X63800000Y-83500000D03*
%TD*%
%TO.C,REF\u002A\u002A*%
X63800000Y-96750000D03*
%TD*%
%TO.C,REF\u002A\u002A*%
X63800000Y-85500000D03*
%TD*%
%TO.C,REF\u002A\u002A*%
X105800000Y-71250000D03*
%TD*%
%TO.C,REF\u002A\u002A*%
X24200000Y-46750000D03*
%TD*%
%TO.C,REF\u002A\u002A*%
X38333334Y-62200000D03*
%TD*%
%TO.C,REF\u002A\u002A*%
X66200000Y-95750000D03*
%TD*%
D14*
%TO.C,J506*%
X68300000Y-64308000D03*
D15*
X68300000Y-66848000D03*
X68300000Y-69388000D03*
X68300000Y-71928000D03*
X68300000Y-74468000D03*
X68300000Y-77008000D03*
X68300000Y-79548000D03*
X68300000Y-82088000D03*
X68300000Y-84628000D03*
X68300000Y-87168000D03*
X68300000Y-89708000D03*
X68300000Y-92248000D03*
X68300000Y-94788000D03*
%TD*%
D10*
%TO.C,REF\u002A\u002A*%
X105800000Y-24250000D03*
%TD*%
M02*
