%TF.GenerationSoftware,KiCad,Pcbnew,(6.0.11)*%
%TF.CreationDate,2023-02-14T10:41:56+13:00*%
%TF.ProjectId,shield_panel,73686965-6c64-45f7-9061-6e656c2e6b69,rev?*%
%TF.SameCoordinates,Original*%
%TF.FileFunction,Soldermask,Top*%
%TF.FilePolarity,Negative*%
%FSLAX46Y46*%
G04 Gerber Fmt 4.6, Leading zero omitted, Abs format (unit mm)*
G04 Created by KiCad (PCBNEW (6.0.11)) date 2023-02-14 10:41:56*
%MOMM*%
%LPD*%
G01*
G04 APERTURE LIST*
G04 Aperture macros list*
%AMRoundRect*
0 Rectangle with rounded corners*
0 $1 Rounding radius*
0 $2 $3 $4 $5 $6 $7 $8 $9 X,Y pos of 4 corners*
0 Add a 4 corners polygon primitive as box body*
4,1,4,$2,$3,$4,$5,$6,$7,$8,$9,$2,$3,0*
0 Add four circle primitives for the rounded corners*
1,1,$1+$1,$2,$3*
1,1,$1+$1,$4,$5*
1,1,$1+$1,$6,$7*
1,1,$1+$1,$8,$9*
0 Add four rect primitives between the rounded corners*
20,1,$1+$1,$2,$3,$4,$5,0*
20,1,$1+$1,$4,$5,$6,$7,0*
20,1,$1+$1,$6,$7,$8,$9,0*
20,1,$1+$1,$8,$9,$2,$3,0*%
G04 Aperture macros list end*
%ADD10C,0.500000*%
%ADD11R,1.010000X0.930000*%
%ADD12R,1.150000X0.600000*%
%ADD13R,0.530000X0.600000*%
%ADD14RoundRect,0.135000X-0.135000X-0.185000X0.135000X-0.185000X0.135000X0.185000X-0.135000X0.185000X0*%
%ADD15RoundRect,0.135000X0.185000X-0.135000X0.185000X0.135000X-0.185000X0.135000X-0.185000X-0.135000X0*%
%ADD16R,1.630000X2.169999*%
%ADD17C,1.400000*%
%ADD18R,3.500000X3.500000*%
%ADD19C,3.500000*%
%ADD20RoundRect,0.218750X-0.256250X0.218750X-0.256250X-0.218750X0.256250X-0.218750X0.256250X0.218750X0*%
%ADD21R,2.108200X1.411999*%
%ADD22R,1.700000X1.700000*%
%ADD23O,1.700000X1.700000*%
%ADD24RoundRect,0.135000X0.135000X0.185000X-0.135000X0.185000X-0.135000X-0.185000X0.135000X-0.185000X0*%
%ADD25RoundRect,0.135000X-0.185000X0.135000X-0.185000X-0.135000X0.185000X-0.135000X0.185000X0.135000X0*%
%ADD26R,0.930000X1.010000*%
%ADD27R,0.800000X0.300000*%
%ADD28R,1.508000X1.508000*%
%ADD29C,1.508000*%
%ADD30R,1.778000X3.505200*%
%ADD31RoundRect,0.140000X-0.140000X-0.170000X0.140000X-0.170000X0.140000X0.170000X-0.140000X0.170000X0*%
%ADD32RoundRect,0.140000X-0.170000X0.140000X-0.170000X-0.140000X0.170000X-0.140000X0.170000X0.140000X0*%
G04 APERTURE END LIST*
D10*
%TO.C,REF\u002A\u002A*%
X66200000Y-85500000D03*
%TD*%
D11*
%TO.C,C207*%
X30582000Y-55450000D03*
X32000000Y-55450000D03*
%TD*%
D10*
%TO.C,REF\u002A\u002A*%
X77333333Y-62200000D03*
%TD*%
%TO.C,REF\u002A\u002A*%
X90666666Y-62200000D03*
%TD*%
D12*
%TO.C,IC202*%
X29500000Y-27700000D03*
X29500000Y-28650000D03*
X29500000Y-29600000D03*
X32000000Y-29600000D03*
X32000000Y-28650000D03*
X32000000Y-27700000D03*
%TD*%
D13*
%TO.C,C202*%
X72100000Y-50400000D03*
X72974000Y-50400000D03*
%TD*%
D10*
%TO.C,REF\u002A\u002A*%
X79333333Y-59800000D03*
%TD*%
%TO.C,REF\u002A\u002A*%
X63800000Y-37500000D03*
%TD*%
%TO.C,REF\u002A\u002A*%
X105800000Y-85500000D03*
%TD*%
D14*
%TO.C,R210*%
X28590000Y-72950000D03*
X29610000Y-72950000D03*
%TD*%
D15*
%TO.C,R205*%
X71050000Y-57460000D03*
X71050000Y-56440000D03*
%TD*%
D10*
%TO.C,REF\u002A\u002A*%
X66200000Y-73250000D03*
%TD*%
%TO.C,REF\u002A\u002A*%
X24200000Y-38500000D03*
%TD*%
%TO.C,REF\u002A\u002A*%
X63800000Y-71250000D03*
%TD*%
%TO.C,REF\u002A\u002A*%
X66200000Y-49750000D03*
%TD*%
%TO.C,REF\u002A\u002A*%
X63800000Y-26250000D03*
%TD*%
D16*
%TO.C,D206*%
X76900000Y-27328001D03*
X76900000Y-31048001D03*
%TD*%
D10*
%TO.C,REF\u002A\u002A*%
X35333334Y-62200000D03*
%TD*%
%TO.C,REF\u002A\u002A*%
X48666666Y-59800000D03*
%TD*%
D17*
%TO.C,J202*%
X49500000Y-56400000D03*
X38500000Y-56400000D03*
D18*
X41500000Y-46400000D03*
D19*
X46500000Y-46400000D03*
%TD*%
D11*
%TO.C,C207*%
X72582000Y-102450000D03*
X74000000Y-102450000D03*
%TD*%
D10*
%TO.C,REF\u002A\u002A*%
X39333334Y-59800000D03*
%TD*%
D20*
%TO.C,D501*%
X54742500Y-56962500D03*
X54742500Y-58537500D03*
%TD*%
D21*
%TO.C,L201*%
X73600000Y-95585598D03*
X73600000Y-90414402D03*
%TD*%
D10*
%TO.C,REF\u002A\u002A*%
X66200000Y-24250000D03*
%TD*%
%TO.C,REF\u002A\u002A*%
X94666666Y-59800000D03*
%TD*%
D12*
%TO.C,IC202*%
X71500000Y-74700000D03*
X71500000Y-75650000D03*
X71500000Y-76600000D03*
X74000000Y-76600000D03*
X74000000Y-75650000D03*
X74000000Y-74700000D03*
%TD*%
D15*
%TO.C,R205*%
X71050000Y-104460000D03*
X71050000Y-103440000D03*
%TD*%
D12*
%TO.C,IC202*%
X29500000Y-74700000D03*
X29500000Y-75650000D03*
X29500000Y-76600000D03*
X32000000Y-76600000D03*
X32000000Y-75650000D03*
X32000000Y-74700000D03*
%TD*%
D10*
%TO.C,REF\u002A\u002A*%
X66200000Y-39500000D03*
%TD*%
%TO.C,REF\u002A\u002A*%
X93666666Y-59800000D03*
%TD*%
%TO.C,REF\u002A\u002A*%
X24200000Y-96750000D03*
%TD*%
D22*
%TO.C,J504*%
X61717000Y-81890000D03*
D23*
X61717000Y-84430000D03*
X61717000Y-86970000D03*
X61717000Y-89510000D03*
X61717000Y-92050000D03*
X61717000Y-94590000D03*
X61717000Y-97130000D03*
X61717000Y-99670000D03*
X61717000Y-102210000D03*
X61717000Y-104750000D03*
%TD*%
D11*
%TO.C,C211*%
X30791000Y-78250000D03*
X32209000Y-78250000D03*
%TD*%
D24*
%TO.C,R206*%
X29050000Y-102350000D03*
X28030000Y-102350000D03*
%TD*%
D10*
%TO.C,REF\u002A\u002A*%
X24200000Y-36500000D03*
%TD*%
%TO.C,REF\u002A\u002A*%
X24200000Y-73250000D03*
%TD*%
%TO.C,REF\u002A\u002A*%
X105800000Y-38500000D03*
%TD*%
%TO.C,REF\u002A\u002A*%
X94666666Y-62200000D03*
%TD*%
D25*
%TO.C,R213*%
X29800000Y-79590000D03*
X29800000Y-80610000D03*
%TD*%
D10*
%TO.C,REF\u002A\u002A*%
X63800000Y-82500000D03*
%TD*%
D25*
%TO.C,R202*%
X68850000Y-101090000D03*
X68850000Y-102110000D03*
%TD*%
D10*
%TO.C,REF\u002A\u002A*%
X66200000Y-50750000D03*
%TD*%
D17*
%TO.C,J201*%
X91500000Y-24550000D03*
X80500000Y-24550000D03*
D18*
X83500000Y-29550000D03*
D19*
X88500000Y-29550000D03*
%TD*%
D10*
%TO.C,REF\u002A\u002A*%
X105800000Y-28250000D03*
%TD*%
%TO.C,REF\u002A\u002A*%
X79333333Y-62200000D03*
%TD*%
%TO.C,REF\u002A\u002A*%
X91666666Y-59800000D03*
%TD*%
%TO.C,REF\u002A\u002A*%
X66200000Y-93750000D03*
%TD*%
%TO.C,REF\u002A\u002A*%
X66200000Y-36500000D03*
%TD*%
D13*
%TO.C,C209*%
X30813000Y-73150000D03*
X31687000Y-73150000D03*
%TD*%
%TO.C,C202*%
X72100000Y-97400000D03*
X72974000Y-97400000D03*
%TD*%
D10*
%TO.C,REF\u002A\u002A*%
X105800000Y-84500000D03*
%TD*%
D15*
%TO.C,R205*%
X29050000Y-57460000D03*
X29050000Y-56440000D03*
%TD*%
D25*
%TO.C,R213*%
X71800000Y-79590000D03*
X71800000Y-80610000D03*
%TD*%
D11*
%TO.C,C211*%
X30791000Y-31250000D03*
X32209000Y-31250000D03*
%TD*%
D10*
%TO.C,REF\u002A\u002A*%
X105800000Y-48750000D03*
%TD*%
%TO.C,REF\u002A\u002A*%
X37333334Y-62200000D03*
%TD*%
%TO.C,REF\u002A\u002A*%
X66200000Y-83500000D03*
%TD*%
%TO.C,REF\u002A\u002A*%
X39333334Y-62200000D03*
%TD*%
%TO.C,REF\u002A\u002A*%
X24200000Y-83500000D03*
%TD*%
D26*
%TO.C,C210*%
X35917000Y-22200000D03*
X35917000Y-20782000D03*
%TD*%
D10*
%TO.C,REF\u002A\u002A*%
X24200000Y-72250000D03*
%TD*%
D20*
%TO.C,D501*%
X96742500Y-103962500D03*
X96742500Y-105537500D03*
%TD*%
D10*
%TO.C,REF\u002A\u002A*%
X105800000Y-37500000D03*
%TD*%
%TO.C,REF\u002A\u002A*%
X105800000Y-75250000D03*
%TD*%
D27*
%TO.C,U502*%
X53670000Y-94945000D03*
X53670000Y-95445000D03*
X53670000Y-95945000D03*
X53670000Y-96445000D03*
X56770000Y-96445000D03*
X56770000Y-95945000D03*
X56770000Y-95445000D03*
X56770000Y-94945000D03*
%TD*%
D17*
%TO.C,J201*%
X38500000Y-71550000D03*
X49500000Y-71550000D03*
D18*
X41500000Y-76550000D03*
D19*
X46500000Y-76550000D03*
%TD*%
D25*
%TO.C,R201*%
X68150000Y-52030000D03*
X68150000Y-53050000D03*
%TD*%
D12*
%TO.C,IC201*%
X70750000Y-51850000D03*
X70750000Y-52800000D03*
X70750000Y-53750000D03*
X73250000Y-53750000D03*
X73250000Y-52800000D03*
X73250000Y-51850000D03*
%TD*%
D10*
%TO.C,REF\u002A\u002A*%
X105800000Y-72250000D03*
%TD*%
D28*
%TO.C,J501*%
X54825000Y-34237500D03*
D29*
X54825000Y-36737500D03*
X54825000Y-39237500D03*
X54825000Y-41737500D03*
%TD*%
D20*
%TO.C,D501*%
X54742500Y-103962500D03*
X54742500Y-105537500D03*
%TD*%
D10*
%TO.C,REF\u002A\u002A*%
X66200000Y-47750000D03*
%TD*%
D30*
%TO.C,F202*%
X79043400Y-34650000D03*
X84275800Y-34650000D03*
%TD*%
D24*
%TO.C,R206*%
X29050000Y-55350000D03*
X28030000Y-55350000D03*
%TD*%
D10*
%TO.C,REF\u002A\u002A*%
X24200000Y-49750000D03*
%TD*%
%TO.C,REF\u002A\u002A*%
X24200000Y-24250000D03*
%TD*%
D17*
%TO.C,J201*%
X91500000Y-71550000D03*
X80500000Y-71550000D03*
D18*
X83500000Y-76550000D03*
D19*
X88500000Y-76550000D03*
%TD*%
D17*
%TO.C,J202*%
X91500000Y-103400000D03*
X80500000Y-103400000D03*
D18*
X83500000Y-93400000D03*
D19*
X88500000Y-93400000D03*
%TD*%
D24*
%TO.C,R212*%
X73860000Y-80500000D03*
X72840000Y-80500000D03*
%TD*%
D11*
%TO.C,C211*%
X72791000Y-78250000D03*
X74209000Y-78250000D03*
%TD*%
D10*
%TO.C,REF\u002A\u002A*%
X92666666Y-59800000D03*
%TD*%
%TO.C,REF\u002A\u002A*%
X66200000Y-27250000D03*
%TD*%
%TO.C,REF\u002A\u002A*%
X78333333Y-62200000D03*
%TD*%
%TO.C,REF\u002A\u002A*%
X66200000Y-84500000D03*
%TD*%
%TO.C,REF\u002A\u002A*%
X81333333Y-59800000D03*
%TD*%
%TO.C,REF\u002A\u002A*%
X105800000Y-97750000D03*
%TD*%
D31*
%TO.C,C502*%
X96545000Y-93825000D03*
X97505000Y-93825000D03*
%TD*%
D10*
%TO.C,REF\u002A\u002A*%
X66200000Y-72250000D03*
%TD*%
%TO.C,REF\u002A\u002A*%
X63800000Y-35500000D03*
%TD*%
D13*
%TO.C,C209*%
X72813000Y-73150000D03*
X73687000Y-73150000D03*
%TD*%
D10*
%TO.C,REF\u002A\u002A*%
X63800000Y-72250000D03*
%TD*%
D26*
%TO.C,C210*%
X77917000Y-22200000D03*
X77917000Y-20782000D03*
%TD*%
D30*
%TO.C,F202*%
X37043400Y-34650000D03*
X42275800Y-34650000D03*
%TD*%
D28*
%TO.C,J502*%
X56325000Y-70500000D03*
D29*
X58825000Y-70500000D03*
%TD*%
D16*
%TO.C,D202*%
X34800000Y-53090000D03*
X34800000Y-56810000D03*
%TD*%
D24*
%TO.C,R212*%
X31860000Y-80500000D03*
X30840000Y-80500000D03*
%TD*%
D10*
%TO.C,REF\u002A\u002A*%
X24200000Y-74250000D03*
%TD*%
D17*
%TO.C,J202*%
X49500000Y-103400000D03*
X38500000Y-103400000D03*
D18*
X41500000Y-93400000D03*
D19*
X46500000Y-93400000D03*
%TD*%
D10*
%TO.C,REF\u002A\u002A*%
X66200000Y-94750000D03*
%TD*%
%TO.C,REF\u002A\u002A*%
X92666666Y-62200000D03*
%TD*%
%TO.C,REF\u002A\u002A*%
X24200000Y-97750000D03*
%TD*%
%TO.C,REF\u002A\u002A*%
X66200000Y-96750000D03*
%TD*%
D27*
%TO.C,U502*%
X53670000Y-47945000D03*
X53670000Y-48445000D03*
X53670000Y-48945000D03*
X53670000Y-49445000D03*
X56770000Y-49445000D03*
X56770000Y-48945000D03*
X56770000Y-48445000D03*
X56770000Y-47945000D03*
%TD*%
D10*
%TO.C,REF\u002A\u002A*%
X66200000Y-82500000D03*
%TD*%
D17*
%TO.C,J201*%
X38500000Y-24550000D03*
X49500000Y-24550000D03*
D18*
X41500000Y-29550000D03*
D19*
X46500000Y-29550000D03*
%TD*%
D10*
%TO.C,REF\u002A\u002A*%
X63800000Y-84500000D03*
%TD*%
%TO.C,REF\u002A\u002A*%
X105800000Y-74250000D03*
%TD*%
%TO.C,REF\u002A\u002A*%
X24200000Y-75250000D03*
%TD*%
D21*
%TO.C,L201*%
X73600000Y-48585598D03*
X73600000Y-43414402D03*
%TD*%
D10*
%TO.C,REF\u002A\u002A*%
X66200000Y-86500000D03*
%TD*%
%TO.C,REF\u002A\u002A*%
X63800000Y-46750000D03*
%TD*%
%TO.C,REF\u002A\u002A*%
X66200000Y-26250000D03*
%TD*%
%TO.C,REF\u002A\u002A*%
X63800000Y-39500000D03*
%TD*%
D14*
%TO.C,R210*%
X70590000Y-72950000D03*
X71610000Y-72950000D03*
%TD*%
D10*
%TO.C,REF\u002A\u002A*%
X78333333Y-59800000D03*
%TD*%
%TO.C,REF\u002A\u002A*%
X63800000Y-86500000D03*
%TD*%
%TO.C,REF\u002A\u002A*%
X66200000Y-35500000D03*
%TD*%
D30*
%TO.C,F201*%
X78933800Y-88750000D03*
X84166200Y-88750000D03*
%TD*%
D10*
%TO.C,REF\u002A\u002A*%
X49666666Y-62200000D03*
%TD*%
%TO.C,REF\u002A\u002A*%
X63800000Y-97750000D03*
%TD*%
D16*
%TO.C,D206*%
X76900000Y-74328001D03*
X76900000Y-78048001D03*
%TD*%
D10*
%TO.C,REF\u002A\u002A*%
X63800000Y-74250000D03*
%TD*%
D31*
%TO.C,C502*%
X96545000Y-46825000D03*
X97505000Y-46825000D03*
%TD*%
D13*
%TO.C,C209*%
X72813000Y-26150000D03*
X73687000Y-26150000D03*
%TD*%
D22*
%TO.C,J504*%
X103717000Y-81890000D03*
D23*
X103717000Y-84430000D03*
X103717000Y-86970000D03*
X103717000Y-89510000D03*
X103717000Y-92050000D03*
X103717000Y-94590000D03*
X103717000Y-97130000D03*
X103717000Y-99670000D03*
X103717000Y-102210000D03*
X103717000Y-104750000D03*
%TD*%
D10*
%TO.C,REF\u002A\u002A*%
X63800000Y-24250000D03*
%TD*%
%TO.C,REF\u002A\u002A*%
X63800000Y-94750000D03*
%TD*%
D24*
%TO.C,R212*%
X73860000Y-33500000D03*
X72840000Y-33500000D03*
%TD*%
D10*
%TO.C,REF\u002A\u002A*%
X90666666Y-59800000D03*
%TD*%
D11*
%TO.C,C211*%
X72791000Y-31250000D03*
X74209000Y-31250000D03*
%TD*%
D25*
%TO.C,R211*%
X28700000Y-77990000D03*
X28700000Y-79010000D03*
%TD*%
D10*
%TO.C,REF\u002A\u002A*%
X66200000Y-71250000D03*
%TD*%
%TO.C,REF\u002A\u002A*%
X66200000Y-25250000D03*
%TD*%
D21*
%TO.C,L201*%
X31600000Y-95585598D03*
X31600000Y-90414402D03*
%TD*%
D10*
%TO.C,REF\u002A\u002A*%
X66200000Y-37500000D03*
%TD*%
%TO.C,REF\u002A\u002A*%
X36333334Y-62200000D03*
%TD*%
%TO.C,REF\u002A\u002A*%
X24200000Y-27250000D03*
%TD*%
%TO.C,REF\u002A\u002A*%
X24200000Y-47750000D03*
%TD*%
%TO.C,REF\u002A\u002A*%
X37333334Y-59800000D03*
%TD*%
%TO.C,REF\u002A\u002A*%
X91666666Y-62200000D03*
%TD*%
%TO.C,REF\u002A\u002A*%
X49666666Y-59800000D03*
%TD*%
%TO.C,REF\u002A\u002A*%
X24200000Y-28250000D03*
%TD*%
%TO.C,REF\u002A\u002A*%
X66200000Y-48750000D03*
%TD*%
%TO.C,REF\u002A\u002A*%
X63800000Y-28250000D03*
%TD*%
D25*
%TO.C,R501*%
X95172500Y-103665000D03*
X95172500Y-104685000D03*
%TD*%
D10*
%TO.C,REF\u002A\u002A*%
X105800000Y-47750000D03*
%TD*%
%TO.C,REF\u002A\u002A*%
X24200000Y-39500000D03*
%TD*%
%TO.C,REF\u002A\u002A*%
X80333333Y-59800000D03*
%TD*%
%TO.C,REF\u002A\u002A*%
X51666666Y-62200000D03*
%TD*%
D32*
%TO.C,C503*%
X58140000Y-94510000D03*
X58140000Y-95470000D03*
%TD*%
D10*
%TO.C,REF\u002A\u002A*%
X35333334Y-59800000D03*
%TD*%
%TO.C,REF\u002A\u002A*%
X77333333Y-59800000D03*
%TD*%
D14*
%TO.C,R210*%
X28590000Y-25950000D03*
X29610000Y-25950000D03*
%TD*%
D28*
%TO.C,J501*%
X96825000Y-34237500D03*
D29*
X96825000Y-36737500D03*
X96825000Y-39237500D03*
X96825000Y-41737500D03*
%TD*%
D26*
%TO.C,C204*%
X35917000Y-47204500D03*
X35917000Y-45786500D03*
%TD*%
D25*
%TO.C,R213*%
X29800000Y-32590000D03*
X29800000Y-33610000D03*
%TD*%
%TO.C,R501*%
X53172500Y-103665000D03*
X53172500Y-104685000D03*
%TD*%
D13*
%TO.C,C209*%
X30813000Y-26150000D03*
X31687000Y-26150000D03*
%TD*%
D10*
%TO.C,REF\u002A\u002A*%
X80333333Y-62200000D03*
%TD*%
D32*
%TO.C,C503*%
X100140000Y-47510000D03*
X100140000Y-48470000D03*
%TD*%
D28*
%TO.C,J502*%
X98325000Y-23500000D03*
D29*
X100825000Y-23500000D03*
%TD*%
D21*
%TO.C,L203*%
X31650000Y-71435598D03*
X31650000Y-66264402D03*
%TD*%
D10*
%TO.C,REF\u002A\u002A*%
X93666666Y-62200000D03*
%TD*%
%TO.C,REF\u002A\u002A*%
X105800000Y-96750000D03*
%TD*%
D21*
%TO.C,L201*%
X31600000Y-48585598D03*
X31600000Y-43414402D03*
%TD*%
D16*
%TO.C,D202*%
X76800000Y-53090000D03*
X76800000Y-56810000D03*
%TD*%
D10*
%TO.C,REF\u002A\u002A*%
X24200000Y-94750000D03*
%TD*%
%TO.C,REF\u002A\u002A*%
X63800000Y-49750000D03*
%TD*%
%TO.C,REF\u002A\u002A*%
X63800000Y-73250000D03*
%TD*%
%TO.C,REF\u002A\u002A*%
X24200000Y-86500000D03*
%TD*%
D24*
%TO.C,R212*%
X31860000Y-33500000D03*
X30840000Y-33500000D03*
%TD*%
D10*
%TO.C,REF\u002A\u002A*%
X63800000Y-27250000D03*
%TD*%
%TO.C,REF\u002A\u002A*%
X81333333Y-62200000D03*
%TD*%
D26*
%TO.C,C204*%
X77917000Y-47204500D03*
X77917000Y-45786500D03*
%TD*%
D10*
%TO.C,REF\u002A\u002A*%
X63800000Y-48750000D03*
%TD*%
%TO.C,REF\u002A\u002A*%
X24200000Y-26250000D03*
%TD*%
D15*
%TO.C,R205*%
X29050000Y-104460000D03*
X29050000Y-103440000D03*
%TD*%
D10*
%TO.C,REF\u002A\u002A*%
X24200000Y-71250000D03*
%TD*%
D30*
%TO.C,F202*%
X79043400Y-81650000D03*
X84275800Y-81650000D03*
%TD*%
D20*
%TO.C,D501*%
X96742500Y-56962500D03*
X96742500Y-58537500D03*
%TD*%
D10*
%TO.C,REF\u002A\u002A*%
X63800000Y-93750000D03*
%TD*%
%TO.C,REF\u002A\u002A*%
X66200000Y-97750000D03*
%TD*%
D16*
%TO.C,D202*%
X34800000Y-100090000D03*
X34800000Y-103810000D03*
%TD*%
D22*
%TO.C,J504*%
X61717000Y-34890000D03*
D23*
X61717000Y-37430000D03*
X61717000Y-39970000D03*
X61717000Y-42510000D03*
X61717000Y-45050000D03*
X61717000Y-47590000D03*
X61717000Y-50130000D03*
X61717000Y-52670000D03*
X61717000Y-55210000D03*
X61717000Y-57750000D03*
%TD*%
D10*
%TO.C,REF\u002A\u002A*%
X63800000Y-47750000D03*
%TD*%
D24*
%TO.C,R206*%
X71050000Y-102350000D03*
X70030000Y-102350000D03*
%TD*%
D22*
%TO.C,J506*%
X26300000Y-64308000D03*
D23*
X26300000Y-66848000D03*
X26300000Y-69388000D03*
X26300000Y-71928000D03*
X26300000Y-74468000D03*
X26300000Y-77008000D03*
X26300000Y-79548000D03*
X26300000Y-82088000D03*
X26300000Y-84628000D03*
X26300000Y-87168000D03*
X26300000Y-89708000D03*
X26300000Y-92248000D03*
X26300000Y-94788000D03*
%TD*%
D28*
%TO.C,J501*%
X96825000Y-81237500D03*
D29*
X96825000Y-83737500D03*
X96825000Y-86237500D03*
X96825000Y-88737500D03*
%TD*%
D10*
%TO.C,REF\u002A\u002A*%
X66200000Y-38500000D03*
%TD*%
D22*
%TO.C,J506*%
X26300000Y-17308000D03*
D23*
X26300000Y-19848000D03*
X26300000Y-22388000D03*
X26300000Y-24928000D03*
X26300000Y-27468000D03*
X26300000Y-30008000D03*
X26300000Y-32548000D03*
X26300000Y-35088000D03*
X26300000Y-37628000D03*
X26300000Y-40168000D03*
X26300000Y-42708000D03*
X26300000Y-45248000D03*
X26300000Y-47788000D03*
%TD*%
D10*
%TO.C,REF\u002A\u002A*%
X50666666Y-59800000D03*
%TD*%
D11*
%TO.C,C207*%
X72582000Y-55450000D03*
X74000000Y-55450000D03*
%TD*%
D10*
%TO.C,REF\u002A\u002A*%
X66200000Y-75250000D03*
%TD*%
%TO.C,REF\u002A\u002A*%
X105800000Y-73250000D03*
%TD*%
D25*
%TO.C,R211*%
X70700000Y-30990000D03*
X70700000Y-32010000D03*
%TD*%
D10*
%TO.C,REF\u002A\u002A*%
X52666666Y-59800000D03*
%TD*%
%TO.C,REF\u002A\u002A*%
X50666666Y-62200000D03*
%TD*%
D12*
%TO.C,IC202*%
X71500000Y-27700000D03*
X71500000Y-28650000D03*
X71500000Y-29600000D03*
X74000000Y-29600000D03*
X74000000Y-28650000D03*
X74000000Y-27700000D03*
%TD*%
D10*
%TO.C,REF\u002A\u002A*%
X24200000Y-48750000D03*
%TD*%
D28*
%TO.C,J502*%
X98325000Y-70500000D03*
D29*
X100825000Y-70500000D03*
%TD*%
D10*
%TO.C,REF\u002A\u002A*%
X105800000Y-86500000D03*
%TD*%
D32*
%TO.C,C503*%
X58140000Y-47510000D03*
X58140000Y-48470000D03*
%TD*%
D26*
%TO.C,C204*%
X35917000Y-94204500D03*
X35917000Y-92786500D03*
%TD*%
D10*
%TO.C,REF\u002A\u002A*%
X38333334Y-59800000D03*
%TD*%
%TO.C,REF\u002A\u002A*%
X105800000Y-83500000D03*
%TD*%
%TO.C,REF\u002A\u002A*%
X66200000Y-28250000D03*
%TD*%
D26*
%TO.C,C210*%
X35917000Y-69200000D03*
X35917000Y-67782000D03*
%TD*%
D10*
%TO.C,REF\u002A\u002A*%
X105800000Y-27250000D03*
%TD*%
D32*
%TO.C,C503*%
X100140000Y-94510000D03*
X100140000Y-95470000D03*
%TD*%
D10*
%TO.C,REF\u002A\u002A*%
X105800000Y-35500000D03*
%TD*%
%TO.C,REF\u002A\u002A*%
X63800000Y-50750000D03*
%TD*%
%TO.C,REF\u002A\u002A*%
X105800000Y-95750000D03*
%TD*%
D22*
%TO.C,J506*%
X68300000Y-17308000D03*
D23*
X68300000Y-19848000D03*
X68300000Y-22388000D03*
X68300000Y-24928000D03*
X68300000Y-27468000D03*
X68300000Y-30008000D03*
X68300000Y-32548000D03*
X68300000Y-35088000D03*
X68300000Y-37628000D03*
X68300000Y-40168000D03*
X68300000Y-42708000D03*
X68300000Y-45248000D03*
X68300000Y-47788000D03*
%TD*%
D14*
%TO.C,R210*%
X70590000Y-25950000D03*
X71610000Y-25950000D03*
%TD*%
D13*
%TO.C,C202*%
X30100000Y-50400000D03*
X30974000Y-50400000D03*
%TD*%
D25*
%TO.C,R202*%
X26850000Y-101090000D03*
X26850000Y-102110000D03*
%TD*%
D21*
%TO.C,L203*%
X73650000Y-24435598D03*
X73650000Y-19264402D03*
%TD*%
D25*
%TO.C,R211*%
X28700000Y-30990000D03*
X28700000Y-32010000D03*
%TD*%
D22*
%TO.C,J504*%
X103717000Y-34890000D03*
D23*
X103717000Y-37430000D03*
X103717000Y-39970000D03*
X103717000Y-42510000D03*
X103717000Y-45050000D03*
X103717000Y-47590000D03*
X103717000Y-50130000D03*
X103717000Y-52670000D03*
X103717000Y-55210000D03*
X103717000Y-57750000D03*
%TD*%
D10*
%TO.C,REF\u002A\u002A*%
X24200000Y-50750000D03*
%TD*%
D25*
%TO.C,R213*%
X71800000Y-32590000D03*
X71800000Y-33610000D03*
%TD*%
D10*
%TO.C,REF\u002A\u002A*%
X24200000Y-35500000D03*
%TD*%
%TO.C,REF\u002A\u002A*%
X63800000Y-25250000D03*
%TD*%
%TO.C,REF\u002A\u002A*%
X105800000Y-46750000D03*
%TD*%
%TO.C,REF\u002A\u002A*%
X24200000Y-82500000D03*
%TD*%
%TO.C,REF\u002A\u002A*%
X63800000Y-36500000D03*
%TD*%
D27*
%TO.C,U502*%
X95670000Y-47945000D03*
X95670000Y-48445000D03*
X95670000Y-48945000D03*
X95670000Y-49445000D03*
X98770000Y-49445000D03*
X98770000Y-48945000D03*
X98770000Y-48445000D03*
X98770000Y-47945000D03*
%TD*%
%TO.C,U502*%
X95670000Y-94945000D03*
X95670000Y-95445000D03*
X95670000Y-95945000D03*
X95670000Y-96445000D03*
X98770000Y-96445000D03*
X98770000Y-95945000D03*
X98770000Y-95445000D03*
X98770000Y-94945000D03*
%TD*%
D10*
%TO.C,REF\u002A\u002A*%
X105800000Y-26250000D03*
%TD*%
D25*
%TO.C,R501*%
X95172500Y-56665000D03*
X95172500Y-57685000D03*
%TD*%
D11*
%TO.C,C207*%
X30582000Y-102450000D03*
X32000000Y-102450000D03*
%TD*%
D26*
%TO.C,C210*%
X77917000Y-69200000D03*
X77917000Y-67782000D03*
%TD*%
D10*
%TO.C,REF\u002A\u002A*%
X105800000Y-49750000D03*
%TD*%
%TO.C,REF\u002A\u002A*%
X105800000Y-82500000D03*
%TD*%
D25*
%TO.C,R201*%
X26150000Y-99030000D03*
X26150000Y-100050000D03*
%TD*%
D30*
%TO.C,F201*%
X78933800Y-41750000D03*
X84166200Y-41750000D03*
%TD*%
D10*
%TO.C,REF\u002A\u002A*%
X63800000Y-95750000D03*
%TD*%
D26*
%TO.C,C204*%
X77917000Y-94204500D03*
X77917000Y-92786500D03*
%TD*%
D10*
%TO.C,REF\u002A\u002A*%
X63800000Y-75250000D03*
%TD*%
%TO.C,REF\u002A\u002A*%
X24200000Y-37500000D03*
%TD*%
%TO.C,REF\u002A\u002A*%
X48666666Y-62200000D03*
%TD*%
D28*
%TO.C,J502*%
X56325000Y-23500000D03*
D29*
X58825000Y-23500000D03*
%TD*%
D25*
%TO.C,R501*%
X53172500Y-56665000D03*
X53172500Y-57685000D03*
%TD*%
D10*
%TO.C,REF\u002A\u002A*%
X63800000Y-38500000D03*
%TD*%
D25*
%TO.C,R211*%
X70700000Y-77990000D03*
X70700000Y-79010000D03*
%TD*%
D12*
%TO.C,IC201*%
X28750000Y-98850000D03*
X28750000Y-99800000D03*
X28750000Y-100750000D03*
X31250000Y-100750000D03*
X31250000Y-99800000D03*
X31250000Y-98850000D03*
%TD*%
D10*
%TO.C,REF\u002A\u002A*%
X24200000Y-84500000D03*
%TD*%
%TO.C,REF\u002A\u002A*%
X24200000Y-25250000D03*
%TD*%
D31*
%TO.C,C502*%
X54545000Y-93825000D03*
X55505000Y-93825000D03*
%TD*%
D30*
%TO.C,F202*%
X37043400Y-81650000D03*
X42275800Y-81650000D03*
%TD*%
D24*
%TO.C,R206*%
X71050000Y-55350000D03*
X70030000Y-55350000D03*
%TD*%
D16*
%TO.C,D206*%
X34900000Y-27328001D03*
X34900000Y-31048001D03*
%TD*%
D10*
%TO.C,REF\u002A\u002A*%
X105800000Y-94750000D03*
%TD*%
%TO.C,REF\u002A\u002A*%
X66200000Y-74250000D03*
%TD*%
%TO.C,REF\u002A\u002A*%
X24200000Y-85500000D03*
%TD*%
%TO.C,REF\u002A\u002A*%
X24200000Y-95750000D03*
%TD*%
%TO.C,REF\u002A\u002A*%
X36333334Y-59800000D03*
%TD*%
D31*
%TO.C,C502*%
X54545000Y-46825000D03*
X55505000Y-46825000D03*
%TD*%
D30*
%TO.C,F201*%
X36933800Y-41750000D03*
X42166200Y-41750000D03*
%TD*%
D13*
%TO.C,C202*%
X30100000Y-97400000D03*
X30974000Y-97400000D03*
%TD*%
D10*
%TO.C,REF\u002A\u002A*%
X51666666Y-59800000D03*
%TD*%
%TO.C,REF\u002A\u002A*%
X24200000Y-93750000D03*
%TD*%
D25*
%TO.C,R202*%
X68850000Y-54090000D03*
X68850000Y-55110000D03*
%TD*%
D10*
%TO.C,REF\u002A\u002A*%
X105800000Y-93750000D03*
%TD*%
D17*
%TO.C,J202*%
X80500000Y-56400000D03*
X91500000Y-56400000D03*
D18*
X83500000Y-46400000D03*
D19*
X88500000Y-46400000D03*
%TD*%
D10*
%TO.C,REF\u002A\u002A*%
X105800000Y-25250000D03*
%TD*%
%TO.C,REF\u002A\u002A*%
X105800000Y-39500000D03*
%TD*%
D21*
%TO.C,L203*%
X31650000Y-24435598D03*
X31650000Y-19264402D03*
%TD*%
D16*
%TO.C,D206*%
X34900000Y-74328001D03*
X34900000Y-78048001D03*
%TD*%
D10*
%TO.C,REF\u002A\u002A*%
X105800000Y-50750000D03*
%TD*%
D21*
%TO.C,L203*%
X73650000Y-71435598D03*
X73650000Y-66264402D03*
%TD*%
D10*
%TO.C,REF\u002A\u002A*%
X66200000Y-46750000D03*
%TD*%
D25*
%TO.C,R201*%
X68150000Y-99030000D03*
X68150000Y-100050000D03*
%TD*%
D10*
%TO.C,REF\u002A\u002A*%
X105800000Y-36500000D03*
%TD*%
D16*
%TO.C,D202*%
X76800000Y-100090000D03*
X76800000Y-103810000D03*
%TD*%
D28*
%TO.C,J501*%
X54825000Y-81237500D03*
D29*
X54825000Y-83737500D03*
X54825000Y-86237500D03*
X54825000Y-88737500D03*
%TD*%
D10*
%TO.C,REF\u002A\u002A*%
X52666666Y-62200000D03*
%TD*%
%TO.C,REF\u002A\u002A*%
X63800000Y-83500000D03*
%TD*%
%TO.C,REF\u002A\u002A*%
X63800000Y-96750000D03*
%TD*%
D25*
%TO.C,R202*%
X26850000Y-54090000D03*
X26850000Y-55110000D03*
%TD*%
D12*
%TO.C,IC201*%
X70750000Y-98850000D03*
X70750000Y-99800000D03*
X70750000Y-100750000D03*
X73250000Y-100750000D03*
X73250000Y-99800000D03*
X73250000Y-98850000D03*
%TD*%
D10*
%TO.C,REF\u002A\u002A*%
X63800000Y-85500000D03*
%TD*%
%TO.C,REF\u002A\u002A*%
X105800000Y-71250000D03*
%TD*%
D12*
%TO.C,IC201*%
X28750000Y-51850000D03*
X28750000Y-52800000D03*
X28750000Y-53750000D03*
X31250000Y-53750000D03*
X31250000Y-52800000D03*
X31250000Y-51850000D03*
%TD*%
D10*
%TO.C,REF\u002A\u002A*%
X24200000Y-46750000D03*
%TD*%
%TO.C,REF\u002A\u002A*%
X38333334Y-62200000D03*
%TD*%
D30*
%TO.C,F201*%
X36933800Y-88750000D03*
X42166200Y-88750000D03*
%TD*%
D10*
%TO.C,REF\u002A\u002A*%
X66200000Y-95750000D03*
%TD*%
D22*
%TO.C,J506*%
X68300000Y-64308000D03*
D23*
X68300000Y-66848000D03*
X68300000Y-69388000D03*
X68300000Y-71928000D03*
X68300000Y-74468000D03*
X68300000Y-77008000D03*
X68300000Y-79548000D03*
X68300000Y-82088000D03*
X68300000Y-84628000D03*
X68300000Y-87168000D03*
X68300000Y-89708000D03*
X68300000Y-92248000D03*
X68300000Y-94788000D03*
%TD*%
D25*
%TO.C,R201*%
X26150000Y-52030000D03*
X26150000Y-53050000D03*
%TD*%
D10*
%TO.C,REF\u002A\u002A*%
X105800000Y-24250000D03*
%TD*%
M02*
